<svg width="23" height="23" viewBox="0 0 23 23" fill="none" xmlns="http://www.w3.org/2000/svg">
<path d="M19.9542 11.9836L13.6465 18.4587C13.5443 18.5636 13.4311 18.6423 13.307 18.6947C13.1829 18.7472 13.0478 18.7734 12.9018 18.7734C12.7558 18.7734 12.6207 18.7472 12.4966 18.6947C12.3725 18.6423 12.2593 18.5636 12.1571 18.4587C12.0549 18.3538 11.9783 18.2376 11.9272 18.1102C11.876 17.9828 11.8505 17.8441 11.8505 17.6943C11.8505 17.5444 11.876 17.4057 11.9272 17.2783C11.9783 17.1509 12.0549 17.0348 12.1571 16.9298L16.6689 12.2984H3.79055C3.64454 12.2984 3.50948 12.2721 3.38537 12.2197C3.26126 12.1672 3.1481 12.0885 3.04589 11.9836C2.94368 11.8787 2.86702 11.7625 2.81591 11.6351C2.76481 11.5077 2.73926 11.3691 2.73926 11.2192C2.73926 11.0693 2.76481 10.9307 2.81591 10.8033C2.86702 10.6758 2.94368 10.5597 3.04589 10.4548C3.1481 10.3498 3.26126 10.2712 3.38537 10.2187C3.50948 10.1662 3.64454 10.14 3.79055 10.14H16.6689L12.1571 5.50853C12.0549 5.40361 11.9783 5.2837 11.9272 5.1488C11.876 5.01391 11.8505 4.87901 11.8505 4.74411C11.8505 4.59423 11.876 4.45558 11.9272 4.32818C11.9783 4.20078 12.0549 4.08461 12.1571 3.97969C12.2593 3.87477 12.3725 3.79608 12.4966 3.74362C12.6207 3.69116 12.7558 3.66493 12.9018 3.66493C13.0478 3.66493 13.1829 3.69116 13.307 3.74362C13.4311 3.79608 13.5443 3.87477 13.6465 3.97969L19.9542 10.4548C19.998 10.4997 20.0418 10.5522 20.0857 10.6121C20.1295 10.6721 20.1587 10.7395 20.1733 10.8145C20.2025 10.8744 20.2244 10.9381 20.239 11.0056C20.2536 11.073 20.2609 11.1442 20.2609 11.2192C20.2609 11.2941 20.2536 11.3653 20.239 11.4328C20.2244 11.5002 20.2025 11.5639 20.1733 11.6239C20.1587 11.6988 20.1295 11.7663 20.0857 11.8262C20.0418 11.8862 19.998 11.9386 19.9542 11.9836Z" fill="#131010"/>
</svg>
