<svg width="52" height="52" viewBox="0 0 52 52" fill="none" xmlns="http://www.w3.org/2000/svg">
<path d="M25.5947 9C35.0354 9.00022 42.6884 16.654 42.6885 26.0947C42.6883 35.5353 35.0353 43.1883 25.5947 43.1885C16.1541 43.1882 8.50022 35.5353 8.5 26.0947C8.50012 16.654 16.1541 9.00024 25.5947 9ZM25.5947 11C17.2586 11.0002 10.5001 17.7586 10.5 26.0947C10.5002 34.4308 17.2587 41.1882 25.5947 41.1885C33.9308 41.1883 40.6883 34.4308 40.6885 26.0947C40.6884 17.7586 33.9308 11.0002 25.5947 11ZM25.5947 15.4375C26.1467 15.4377 26.5945 15.8856 26.5947 16.4375V25.4766L32.4795 28.4189C32.9733 28.666 33.1737 29.2669 32.9268 29.7607C32.6798 30.2545 32.0788 30.4548 31.585 30.208L25.1475 26.9883C24.8091 26.8189 24.5949 26.4732 24.5947 26.0947V16.4375C24.595 15.8856 25.0428 15.4377 25.5947 15.4375Z" fill="white"/>
</svg>
