<svg width="52" height="52" viewBox="0 0 52 52" fill="none" xmlns="http://www.w3.org/2000/svg">
<path d="M21.2871 11C22.2644 11 22.9976 10.9866 23.6621 11.2217C24.2151 11.4174 24.7171 11.7358 25.1318 12.1523C25.6281 12.6508 25.9396 13.3205 26.3779 14.2197L27.7393 17.0098H33.2656C34.4792 17.0098 35.4521 17.0085 36.2363 17.0742C37.0328 17.141 37.7248 17.2816 38.3613 17.6143C39.3781 18.1456 40.2001 18.9916 40.7139 20.0254C41.0339 20.6696 41.1697 21.3703 41.2344 22.1816C41.2981 22.9821 41.2979 23.9758 41.2979 25.2217V31.832C41.2979 33.0779 41.2981 34.0716 41.2344 34.8721C41.1697 35.6832 41.0337 36.3833 40.7139 37.0273C40.2002 38.0613 39.378 38.907 38.3613 39.4385C37.7248 39.7711 37.0327 39.9117 36.2363 39.9785C35.4521 40.0442 34.4792 40.0439 33.2656 40.0439H18.0312C16.8177 40.0439 15.8457 40.0442 15.0615 39.9785C14.2648 39.9118 13.5732 39.7712 12.9365 39.4385C11.9195 38.907 11.0967 38.0615 10.583 37.0273C10.2632 36.3833 10.1281 35.6832 10.0635 34.8721C9.99974 34.0716 10 33.0779 10 31.832V16.8076C10 15.9826 9.99918 15.3047 10.043 14.7549C10.0877 14.1941 10.1837 13.6788 10.4238 13.1953C10.7972 12.4443 11.3956 11.8287 12.1367 11.4414C12.6166 11.1907 13.1275 11.0902 13.6797 11.0439C14.2196 10.9987 14.8842 11 15.6875 11H21.2871ZM12 31.832C12 33.1099 12.0007 34.0103 12.0566 34.7129C12.1117 35.4044 12.2162 35.8179 12.375 36.1377C12.7038 36.7996 13.2257 37.3332 13.8623 37.666C14.1657 37.8245 14.5596 37.9303 15.2285 37.9863C15.9098 38.0434 16.7839 38.0439 18.0312 38.0439H33.2656C34.513 38.0439 35.388 38.0434 36.0693 37.9863C36.7378 37.9303 37.1313 37.8245 37.4346 37.666C38.0712 37.3332 38.594 36.7996 38.9229 36.1377C39.0816 35.8179 39.1852 35.4042 39.2402 34.7129C39.2962 34.0103 39.2979 33.1099 39.2979 31.832V25.2217C39.2979 23.9439 39.2962 23.0434 39.2402 22.3408C39.1851 21.6496 39.0816 21.2358 38.9229 20.916C38.5939 20.2541 38.0713 19.7204 37.4346 19.3877C37.1313 19.2292 36.7379 19.1234 36.0693 19.0674C35.388 19.0103 34.513 19.0098 33.2656 19.0098H12V31.832ZM15.6875 13C14.8504 13 14.2837 13.0005 13.8467 13.0371C13.4224 13.0727 13.2092 13.1373 13.0625 13.2139C12.7016 13.4025 12.4033 13.7069 12.2148 14.0859C12.1359 14.245 12.0722 14.4735 12.0371 14.9141C12.0011 15.366 12 15.9507 12 16.8076V17.0098H25.5137L24.5811 15.0957C24.0791 14.066 23.9201 13.7698 23.7148 13.5635C23.5093 13.3571 23.2628 13.2022 22.9951 13.1074C22.7313 13.0141 22.4124 13 21.2871 13H15.6875Z" fill="white"/>
</svg>
