<svg width="52" height="52" viewBox="0 0 52 52" fill="none" xmlns="http://www.w3.org/2000/svg">
<path d="M25.1445 10C29.0698 10 32.3431 12.9897 32.4551 16.8135L36.5771 15.6924C36.8723 15.6121 37.1547 15.5338 37.3936 15.4902C37.6383 15.4456 37.9501 15.4128 38.2842 15.5029C38.6744 15.6084 39.0261 15.8351 39.2803 16.1553L39.3828 16.2979L39.4502 16.4111C39.5929 16.6776 39.638 16.9482 39.6582 17.1641C39.6805 17.4022 39.6797 17.6897 39.6797 17.9795V20.0459C39.7153 20.0814 39.7637 20.13 39.8398 20.2031C40.8067 21.1312 41.608 22.2208 42.1943 23.4287C42.2688 23.5821 42.3165 23.6778 42.3525 23.7461C42.4216 23.7486 42.5172 23.75 42.6758 23.75C42.9014 23.75 43.1254 23.7497 43.3145 23.7637C43.4634 23.7747 43.6356 23.7973 43.8164 23.8555L44 23.9258L44.1406 23.998C44.4609 24.1783 44.7266 24.4493 44.8965 24.7852C45.0235 25.0363 45.0628 25.2824 45.0791 25.4814C45.0944 25.6683 45.0938 25.888 45.0938 26.1006V31.9688C45.0938 32.1921 45.0949 32.4232 45.0781 32.6191C45.0602 32.8282 45.0163 33.0863 44.877 33.3467C44.6879 33.6998 44.3914 33.9778 44.0381 34.1494C43.7815 34.2739 43.5289 34.3129 43.3203 34.3291C43.1222 34.3445 42.8872 34.3438 42.6504 34.3438H41.6729C41.533 34.3438 41.4513 34.3436 41.3926 34.3457C41.3517 34.3985 41.2979 34.4738 41.208 34.5986C40.0068 36.2662 38.3524 37.6065 36.4199 38.4609C36.2545 38.5341 36.1489 38.5822 36.0723 38.6191C36.0719 38.6336 36.0715 38.6501 36.0713 38.668C36.0706 38.7279 36.0703 38.7974 36.0703 38.8857V40.5625C36.0703 40.7858 36.0715 41.0169 36.0547 41.2129C36.0367 41.422 35.9928 41.68 35.8535 41.9404C35.6645 42.2935 35.368 42.5716 35.0146 42.7432C34.7581 42.8677 34.5054 42.9066 34.2969 42.9229C34.0987 42.9383 33.8638 42.9375 33.627 42.9375H30.1973C29.9604 42.9375 29.7255 42.9383 29.5273 42.9229C29.3188 42.9066 29.0661 42.8677 28.8096 42.7432C28.4562 42.5716 28.1597 42.2935 27.9707 41.9404C27.8314 41.68 27.7875 41.422 27.7695 41.2129C27.7527 41.0169 27.7539 40.7858 27.7539 40.5625V39.875C27.7539 39.7525 27.7533 39.6563 27.752 39.5732C27.7515 39.5481 27.7496 39.5252 27.749 39.5049C27.6517 39.501 27.5179 39.5 27.3096 39.5H24.7832C24.5745 39.5 24.4411 39.5009 24.3438 39.5049C24.3431 39.5252 24.3412 39.5481 24.3408 39.5732C24.3395 39.6563 24.3398 39.7525 24.3398 39.875V40.5625C24.3398 40.7858 24.341 41.0169 24.3242 41.2129C24.3063 41.422 24.2624 41.68 24.123 41.9404C23.9339 42.2937 23.6368 42.5716 23.2832 42.7432C23.0268 42.8676 22.7749 42.9066 22.5664 42.9229C22.3681 42.9383 22.1325 42.9375 21.8955 42.9375H18.4668C18.23 42.9375 17.9951 42.9383 17.7969 42.9229C17.5883 42.9066 17.3357 42.8677 17.0791 42.7432C16.7257 42.5716 16.4293 42.2935 16.2402 41.9404C16.1009 41.68 16.057 41.422 16.0391 41.2129C16.0223 41.0169 16.0234 40.7858 16.0234 40.5625V36.3486C16.0234 36.3413 16.0225 36.3345 16.0225 36.3281C15.987 36.2927 15.9388 36.2443 15.8633 36.1719C13.9679 34.3526 12.7095 31.9112 12.46 29.1875H11.6094C9.11022 29.1875 7 27.2462 7 24.75C7 23.0819 7.95265 21.651 9.32227 20.8965C9.80598 20.6301 10.4142 20.8063 10.6807 21.29C10.947 21.7737 10.7708 22.382 10.2871 22.6484C9.49913 23.0826 9 23.8735 9 24.75C9 26.0508 10.1217 27.1875 11.6094 27.1875H12.4619C12.7963 23.533 14.9427 20.3935 18.0098 18.5713C17.8923 18.0719 17.8281 17.5517 17.8281 17.0156C17.8281 13.0956 21.1503 10 25.1445 10ZM37.1016 17.6221L32.8203 18.7871C32.762 18.803 32.6809 18.8258 32.5957 18.8418C32.5282 18.8545 32.46 18.8637 32.3916 18.8691C32.3227 18.8746 32.2554 18.873 32.2002 18.873C31.3467 21.8699 28.4814 24.0312 25.1445 24.0312C22.4301 24.0312 20.0275 22.6007 18.7656 20.4541C16.1271 22.1348 14.4141 24.9822 14.4141 28.1875C14.4141 30.7299 15.4889 33.041 17.248 34.7295C17.3542 34.8313 17.4975 34.9638 17.6201 35.1133L17.7344 35.2686L17.8105 35.3975C17.857 35.4842 17.8953 35.5724 17.9268 35.666L17.9688 35.8115L18.0029 35.9971C18.0271 36.1828 18.0234 36.3615 18.0234 36.4883V40.5625C18.0234 40.685 18.023 40.7812 18.0244 40.8643C18.0248 40.889 18.0267 40.9116 18.0273 40.9316C18.1247 40.9356 18.2581 40.9375 18.4668 40.9375H21.8955C22.1039 40.9375 22.2377 40.9356 22.335 40.9316C22.3356 40.9116 22.3375 40.889 22.3379 40.8643C22.3393 40.7812 22.3398 40.685 22.3398 40.5625V39.875C22.3398 39.6517 22.3387 39.4206 22.3555 39.2246C22.3734 39.0155 22.4173 38.7575 22.5566 38.4971L22.6318 38.3682C22.8201 38.0759 23.0862 37.8445 23.3955 37.6943L23.5869 37.6162C23.7759 37.5521 23.9568 37.5268 24.1133 37.5146C24.3115 37.4992 24.5464 37.5 24.7832 37.5H27.3096C27.5465 37.5 27.7822 37.4992 27.9805 37.5146C28.1369 37.5268 28.3178 37.552 28.5068 37.6162L28.6973 37.6943L28.8271 37.7637C29.1234 37.9367 29.3716 38.1879 29.5371 38.4971C29.6764 38.7575 29.7203 39.0155 29.7383 39.2246C29.7551 39.4206 29.7539 39.6517 29.7539 39.875V40.5625C29.7539 40.685 29.7535 40.7812 29.7549 40.8643C29.7553 40.889 29.7572 40.9116 29.7578 40.9316C29.8551 40.9356 29.9885 40.9375 30.1973 40.9375H33.627C33.835 40.9375 33.9682 40.9356 34.0654 40.9316C34.066 40.9116 34.0689 40.889 34.0693 40.8643C34.0707 40.7812 34.0703 40.685 34.0703 40.5625V38.8857C34.0703 38.7245 34.0702 38.5576 34.0791 38.415C34.0885 38.2644 34.111 38.0761 34.1855 37.876L34.2725 37.6748C34.3694 37.4836 34.4953 37.3201 34.6582 37.168L34.7803 37.0654C34.9029 36.9722 35.0266 36.9047 35.1279 36.8535C35.2642 36.7847 35.4333 36.7106 35.6113 36.6318C37.2239 35.9188 38.595 34.8039 39.585 33.4297C39.7314 33.2264 39.929 32.933 40.1787 32.7412C40.3785 32.5877 40.5809 32.4865 40.8213 32.418C41.1155 32.3341 41.438 32.3437 41.6729 32.3438H42.6504C42.8584 32.3438 42.9917 32.3418 43.0889 32.3379C43.0895 32.3178 43.0924 32.2952 43.0928 32.2705C43.0941 32.1874 43.0938 32.0912 43.0938 31.9688V26.1006C43.0938 25.9837 43.094 25.8917 43.0928 25.8125C43.0924 25.7918 43.0903 25.7731 43.0898 25.7559C42.9975 25.7524 42.8714 25.75 42.6758 25.75C42.405 25.75 42.0341 25.7622 41.707 25.6572C41.482 25.5849 41.2882 25.4832 41.1104 25.3418L40.9365 25.1865C40.7882 25.0372 40.6892 24.873 40.6191 24.7461C40.5494 24.6196 40.4738 24.464 40.3955 24.3027C39.9154 23.3135 39.2563 22.4145 38.4551 21.6455C38.3135 21.5096 38.1049 21.3193 37.9688 21.1064C37.8586 20.9341 37.7844 20.7631 37.7344 20.5635C37.6725 20.3165 37.6797 20.0555 37.6797 19.8867V17.9795C37.6797 17.7475 37.6762 17.5908 37.6719 17.4756C37.5438 17.5037 37.3699 17.549 37.1016 17.6221ZM25.1445 12C22.1618 12 19.8281 14.291 19.8281 17.0156C19.8281 19.7403 22.1618 22.0312 25.1445 22.0312C27.8258 22.0312 29.9801 20.1796 30.3887 17.8262C30.392 17.756 30.4028 17.6878 30.4199 17.6221C30.4456 17.4228 30.4609 17.2206 30.4609 17.0156C30.4609 14.291 28.1272 12 25.1445 12Z" fill="white"/>
</svg>
