<svg width="52" height="52" viewBox="0 0 52 52" fill="none" xmlns="http://www.w3.org/2000/svg">
<path d="M19.4736 18.1016C19.8401 18.0161 20.1968 18.0625 20.4814 18.1182C20.8172 18.1838 21.2307 18.3028 21.6982 18.4365L44.958 25.0898C45.534 25.2546 46.0291 25.3945 46.4004 25.5352C46.6931 25.6461 47.0881 25.8175 47.3779 26.1436L47.4951 26.293L47.5605 26.3955C47.8704 26.9134 47.9217 27.547 47.6836 28.1133C47.4805 28.5962 47.0533 28.8879 46.752 29.0723C46.4156 29.278 45.9579 29.5064 45.4277 29.7715L35.8418 34.5645C35.7552 34.6077 35.7104 34.6293 35.6787 34.6465C35.6769 34.6474 35.6744 34.6476 35.6729 34.6484C35.6656 34.66 35.6555 34.6769 35.6406 34.7021C35.6255 34.7278 35.6083 34.7584 35.5859 34.7969L30.4248 43.6982C30.1403 44.1889 29.8916 44.6179 29.667 44.9346C29.4558 45.2323 29.1435 45.6151 28.6611 45.79C28.0761 46.002 27.417 45.9449 26.8779 45.626C26.4301 45.3609 26.1982 44.919 26.0527 44.5879C25.8976 44.2348 25.7439 43.7665 25.5674 43.2344L18.4023 21.6367C18.2595 21.2061 18.1278 20.8127 18.0547 20.4902C17.9841 20.1787 17.9187 19.74 18.0938 19.2969L18.1865 19.0957C18.4288 18.6428 18.8399 18.309 19.3164 18.1465L19.4736 18.1016ZM20.0107 20.0684C20.0585 20.2712 20.1497 20.5513 20.3008 21.0068L27.4658 42.6045C27.6554 43.1761 27.7756 43.5369 27.8838 43.7832C27.9058 43.8332 27.9275 43.8699 27.9424 43.8984C27.9652 43.8712 27.9972 43.8322 28.0361 43.7773C28.1949 43.5535 28.3895 43.2199 28.6943 42.6943L33.8564 33.793C33.9268 33.6716 34.0197 33.5036 34.1475 33.3535C34.2483 33.235 34.363 33.1294 34.4873 33.0381C34.6427 32.9241 34.8147 32.8416 34.9473 32.7754L44.5332 27.9824C45.0612 27.7184 45.4137 27.5393 45.6582 27.3945C45.3855 27.2939 44.9961 27.1809 44.4082 27.0127L21.1484 20.3594C20.6453 20.2155 20.3292 20.1263 20.0977 20.0811C20.0642 20.0745 20.0349 20.072 20.0107 20.0684ZM11.6602 27.4268C12.0648 27.0511 12.6975 27.0749 13.0732 27.4795C13.4488 27.8842 13.4251 28.5169 13.0205 28.8926L10.8232 30.9326C10.4185 31.308 9.78581 31.2844 9.41016 30.8799C9.03485 30.4752 9.05859 29.8425 9.46289 29.4668L11.6602 27.4268ZM9.10742 19.4648C9.65957 19.4649 10.1073 19.9127 10.1074 20.4648C10.1074 21.017 9.65963 21.4648 9.10742 21.4648H6C5.44794 21.4646 5.00007 21.0169 5 20.4648C5.00016 19.9128 5.448 19.4651 6 19.4648H9.10742ZM9.41016 10.167C9.78583 9.76242 10.4185 9.73885 10.8232 10.1143L13.0205 12.1543C13.4252 12.5301 13.449 13.1636 13.0732 13.5684C12.6974 13.9726 12.0647 13.9957 11.6602 13.6201L9.46289 11.5801C9.05849 11.2044 9.03488 10.5717 9.41016 10.167ZM30.3037 10.1143C30.7083 9.73852 31.341 9.76249 31.7168 10.167C32.0926 10.5717 32.0697 11.2043 31.665 11.5801L29.4678 13.6201C29.0632 13.9955 28.4304 13.9726 28.0547 13.5684C27.6791 13.1637 27.702 12.5301 28.1064 12.1543L30.3037 10.1143ZM20.501 6C21.0533 6.00001 21.501 6.44772 21.501 7V9.88574C21.5007 10.4378 21.0531 10.8857 20.501 10.8857C19.949 10.8855 19.5012 10.4377 19.501 9.88574V7C19.501 6.44785 19.9489 6.00022 20.501 6Z" fill="white"/>
</svg>
