<svg width="52" height="52" viewBox="0 0 52 52" fill="none" xmlns="http://www.w3.org/2000/svg">
<path d="M32.4248 8C34.0153 8 35.269 7.99933 36.2764 8.08203C37.2954 8.16571 38.1511 8.33963 38.9297 8.73828C40.1979 9.38769 41.2287 10.4236 41.874 11.6963C42.2698 12.477 42.4422 13.3356 42.5254 14.3584C42.6076 15.3698 42.6074 16.6286 42.6074 18.2266V43.5996C42.6072 43.9759 42.3951 44.3208 42.0596 44.4912C41.7242 44.6612 41.3213 44.6288 41.0176 44.4072L36.375 41.0137L32.1904 44.3789C31.8381 44.6618 31.3396 44.6735 30.9746 44.4072L26.3037 40.9932L21.6328 44.4072C21.2678 44.6736 20.7684 44.662 20.416 44.3789L16.2314 41.0146L11.5898 44.4072C11.2859 44.629 10.8824 44.6615 10.5469 44.4912C10.2115 44.3208 10.0002 43.9758 10 43.5996V18.2266C10 16.6287 9.99888 15.3698 10.0811 14.3584C10.1642 13.3355 10.3376 12.477 10.7334 11.6963C11.3788 10.4235 12.4094 9.38768 13.6777 8.73828C14.4564 8.33963 15.3119 8.16571 16.3311 8.08203C17.3384 7.99933 18.5922 8 20.1826 8H32.4248ZM20.1826 10C18.5593 10 17.4016 10.0008 16.4951 10.0752C15.6004 10.1487 15.0378 10.2887 14.5889 10.5186C13.6979 10.9748 12.9725 11.7036 12.5176 12.6006C12.2881 13.0533 12.1484 13.6206 12.0752 14.5205C12.0011 15.432 12 16.5959 12 18.2266V41.6299L15.6709 38.9473L15.8135 38.8604C16.1583 38.6879 16.5784 38.7279 16.8867 38.9756L21.0713 42.3389L25.7139 38.9473L25.8506 38.8633C26.1821 38.6947 26.5861 38.7227 26.8936 38.9473L31.5352 42.3389L35.7197 38.9756C36.0722 38.6923 36.5714 38.6806 36.9365 38.9473L40.6074 41.6299V18.2266C40.6074 16.5959 40.6063 15.432 40.5322 14.5205C40.4591 13.6206 40.3193 13.0533 40.0898 12.6006C39.6349 11.7035 38.9087 10.9749 38.0176 10.5186C37.5687 10.2888 37.0068 10.1486 36.1123 10.0752C35.2058 10.0008 34.0483 10 32.4248 10H20.1826ZM32.29 17.9053C32.6796 17.5139 33.3127 17.5128 33.7041 17.9023C34.0953 18.2919 34.0974 18.925 33.708 19.3164L25.0996 27.9658C24.912 28.1542 24.6566 28.2607 24.3906 28.2607C24.1247 28.2607 23.8693 28.1542 23.6816 27.9658L19.8555 24.1221C19.4661 23.7307 19.4684 23.0976 19.8594 22.708C20.2508 22.3185 20.8838 22.3196 21.2734 22.7109L24.3896 25.8428L32.29 17.9053Z" fill="white"/>
</svg>
