<svg width="24" height="24" viewBox="0 0 24 24" fill="none" xmlns="http://www.w3.org/2000/svg">
<path d="M18.6185 8.25847L8.84918 18.2526C8.80343 18.3152 8.75004 18.366 8.68903 18.4051C8.62802 18.4442 8.55938 18.4794 8.48312 18.5107C8.42211 18.542 8.35729 18.5615 8.28865 18.5693C8.22001 18.5771 8.14756 18.5811 8.0713 18.5811C7.99504 18.5811 7.92259 18.5771 7.85395 18.5693C7.78531 18.5615 7.72049 18.542 7.65948 18.5107C7.58322 18.4794 7.51458 18.4442 7.45357 18.4051C7.39256 18.366 7.33918 18.3152 7.29342 18.2526L3.15234 14.0063C3.09133 13.9594 3.04175 13.9046 3.00362 13.8421C2.96549 13.7795 2.93117 13.7091 2.90067 13.6309C2.87016 13.5683 2.8511 13.5019 2.84347 13.4315C2.83584 13.3611 2.83203 13.2868 2.83203 13.2086C2.83203 13.1304 2.83584 13.0561 2.84347 12.9857C2.8511 12.9154 2.87016 12.8489 2.90067 12.7863C2.93117 12.7081 2.96549 12.6378 3.00362 12.5752C3.04175 12.5126 3.09133 12.4579 3.15234 12.411C3.19809 12.364 3.25148 12.3171 3.31249 12.2702C3.3735 12.2233 3.43451 12.192 3.49552 12.1764C3.57178 12.1451 3.64423 12.1216 3.71287 12.106C3.78151 12.0903 3.85396 12.0825 3.93022 12.0825C3.99123 12.0825 4.05987 12.0903 4.13613 12.106C4.21239 12.1216 4.28103 12.1451 4.34204 12.1764C4.40305 12.192 4.46406 12.2233 4.52507 12.2702C4.58608 12.3171 4.64709 12.364 4.7081 12.411L8.0713 15.8596L17.0627 6.66317C17.1542 6.55368 17.2686 6.47157 17.4059 6.41683C17.5432 6.36209 17.6881 6.33472 17.8406 6.33472C17.9779 6.33472 18.1151 6.36209 18.2524 6.41683C18.3897 6.47157 18.5117 6.55368 18.6185 6.66317C18.71 6.75701 18.7863 6.87431 18.8473 7.01507C18.9083 7.15583 18.9388 7.30442 18.9388 7.46082C18.9388 7.60158 18.9083 7.74234 18.8473 7.88311C18.7863 8.02387 18.71 8.14899 18.6185 8.25847Z" fill="#FF4554"/>
</svg>
