<svg width="17" height="13" viewBox="0 0 17 13" fill="none" xmlns="http://www.w3.org/2000/svg">
<path d="M16.1877 1.92351L6.17009 11.9176C6.12317 11.9802 6.06843 12.031 6.00587 12.0701C5.9433 12.1092 5.87292 12.1444 5.79472 12.1757C5.73216 12.207 5.66569 12.2265 5.59531 12.2344C5.52493 12.2422 5.45064 12.2461 5.37243 12.2461C5.29423 12.2461 5.21994 12.2422 5.14956 12.2344C5.07918 12.2265 5.01271 12.207 4.95015 12.1757C4.87195 12.1444 4.80156 12.1092 4.739 12.0701C4.67644 12.031 4.6217 11.9802 4.57478 11.9176L0.328446 7.67131C0.265885 7.62439 0.215054 7.56965 0.175953 7.50709C0.136852 7.44453 0.101662 7.37415 0.0703812 7.29595C0.0391007 7.23339 0.0195503 7.16691 0.0117302 7.09653C0.00391007 7.02615 0 6.95186 0 6.87366C0 6.79546 0.00391007 6.72117 0.0117302 6.65079C0.0195503 6.5804 0.0391007 6.51393 0.0703812 6.45137C0.101662 6.37317 0.136852 6.30279 0.175953 6.24023C0.215054 6.17767 0.265885 6.12293 0.328446 6.07601C0.375367 6.02909 0.430108 5.98216 0.492669 5.93524C0.55523 5.88832 0.617791 5.85704 0.680352 5.8414C0.758553 5.81012 0.832845 5.78666 0.903226 5.77102C0.973607 5.75538 1.0479 5.74756 1.1261 5.74756C1.18866 5.74756 1.25904 5.75538 1.33724 5.77102C1.41544 5.78666 1.48583 5.81012 1.54839 5.8414C1.61095 5.85704 1.67351 5.88832 1.73607 5.93524C1.79863 5.98216 1.86119 6.02909 1.92375 6.07601L5.37243 9.52469L14.5924 0.328205C14.6862 0.218723 14.8035 0.136612 14.9443 0.081871C15.085 0.0271301 15.2336 -0.000240326 15.39 -0.000240326C15.5308 -0.000240326 15.6716 0.0271301 15.8123 0.081871C15.9531 0.136612 16.0782 0.218723 16.1877 0.328205C16.2815 0.422047 16.3597 0.539349 16.4223 0.680111C16.4848 0.820873 16.5161 0.969457 16.5161 1.12586C16.5161 1.26662 16.4848 1.40738 16.4223 1.54815C16.3597 1.68891 16.2815 1.81403 16.1877 1.92351Z" fill="white"/>
</svg>
