<svg width="52" height="52" viewBox="0 0 52 52" fill="none" xmlns="http://www.w3.org/2000/svg">
<path d="M21.5537 32.3994C26.8099 32.3995 31.5031 35.2322 34.9014 39.6846C35.2363 40.1235 35.1526 40.7508 34.7139 41.0859C34.2749 41.4209 33.6466 41.3364 33.3115 40.8975C30.194 36.8131 26.0412 34.3995 21.5537 34.3994C17.066 34.3994 12.9125 36.8129 9.79492 40.8975C9.45986 41.3363 8.83254 41.4208 8.39355 41.0859C7.9546 40.7509 7.87016 40.1236 8.20508 39.6846C11.6034 35.2321 16.2973 32.3994 21.5537 32.3994ZM34.874 34.2969C35.1074 33.7965 35.7026 33.5803 36.2031 33.8135C38.9013 35.0705 41.3011 37.1043 43.2705 39.6846C43.6054 40.1236 43.521 40.7509 43.082 41.0859C42.643 41.4208 42.0157 41.3364 41.6807 40.8975C39.8759 38.533 37.7196 36.7259 35.3584 35.626C34.8578 35.3928 34.6409 34.7975 34.874 34.2969ZM21.5537 10C26.2928 10.0002 30.085 13.9471 30.085 18.7539C30.0847 23.5605 26.2926 27.5066 21.5537 27.5068C16.8147 27.5068 13.0217 23.5606 13.0215 18.7539C13.0215 13.947 16.8145 10 21.5537 10ZM31.543 11.3506C31.7945 10.859 32.397 10.6645 32.8887 10.916C35.6998 12.3543 37.6172 15.331 37.6172 18.7539C37.617 22.1767 35.6999 25.1536 32.8887 26.5918C32.397 26.8433 31.7945 26.6478 31.543 26.1562C31.2915 25.6646 31.4859 25.0621 31.9775 24.8105C34.126 23.7113 35.617 21.4192 35.6172 18.7539C35.6172 16.0884 34.1262 13.7955 31.9775 12.6963C31.4859 12.4448 31.2915 11.8422 31.543 11.3506ZM21.5537 12C17.9733 12 15.0215 14.9965 15.0215 18.7539C15.0217 22.5111 17.9735 25.5068 21.5537 25.5068C25.1338 25.5066 28.0847 22.5109 28.085 18.7539C28.085 14.9966 25.1339 12.0002 21.5537 12Z" fill="white"/>
</svg>
