<svg width="76" height="14" viewBox="0 0 76 14" fill="none" xmlns="http://www.w3.org/2000/svg">
<path fill-rule="evenodd" clip-rule="evenodd" d="M23.3341 3.46451V2.61734C23.3326 2.56202 23.3549 2.50837 23.3962 2.46819C23.4375 2.42802 23.4945 2.40459 23.5545 2.40308H27.5981C27.6273 2.40205 27.6565 2.40634 27.6839 2.41571C27.7113 2.42508 27.7365 2.43934 27.7579 2.45768C27.7793 2.47601 27.7966 2.49806 27.8087 2.52256C27.8209 2.54706 27.8277 2.57352 27.8287 2.60044C27.8291 2.60505 27.8291 2.60966 27.8291 2.6141V3.3392C27.78 3.53797 27.6764 3.72184 27.5282 3.87325L25.4295 6.67222C26.2259 6.63125 27.0192 6.79173 27.7277 7.13695C27.7912 7.1701 27.8443 7.21791 27.8817 7.27569C27.9191 7.33347 27.9395 7.39922 27.9409 7.46647V8.36981C27.9447 8.48095 27.8524 8.57366 27.7345 8.57725C27.7033 8.57814 27.6723 8.5726 27.6437 8.56103C26.9877 8.24194 26.257 8.07515 25.5152 8.07515C24.7733 8.07515 24.0426 8.24194 23.3866 8.56103C23.2467 8.63034 23.0998 8.48864 23.0998 8.36332V7.50625C23.0871 7.30342 23.1394 7.10162 23.2502 6.92593L25.6744 3.66888H23.5755C23.4504 3.67451 23.3436 3.58317 23.3377 3.46486V3.46127L23.3341 3.46451ZM6.93094 8.57895C6.87392 8.57679 6.81969 8.55568 6.77828 8.51951C6.73687 8.48335 6.71109 8.4346 6.70572 8.38227V2.40086C6.70618 2.37188 6.71284 2.34328 6.72534 2.31668C6.73783 2.29008 6.7559 2.26602 6.77851 2.24588C6.80113 2.22573 6.82784 2.2099 6.85711 2.19928C6.88639 2.18867 6.91765 2.18348 6.9491 2.18403H8.13637C8.1953 2.18625 8.25134 2.20811 8.29406 2.24555C8.33679 2.28298 8.36329 2.33345 8.36864 2.38754V3.16778H8.39051C8.496 2.83802 8.7179 2.55009 9.02108 2.34958C9.32426 2.14906 9.6914 2.04743 10.0644 2.06076C10.8596 2.06076 11.3604 2.41076 11.7163 3.16778C12.0921 2.27656 13.1831 1.83368 14.1537 2.17856C14.4653 2.28909 14.7394 2.474 14.9478 2.71432C15.3508 3.21764 15.2672 3.94786 15.2672 4.5881V8.36554C15.2663 8.39447 15.2591 8.42294 15.2462 8.44932C15.2333 8.47571 15.2149 8.49949 15.192 8.51931C15.1691 8.53913 15.1422 8.5546 15.1128 8.56483C15.0834 8.57507 15.0521 8.57986 15.0207 8.57895H13.7496C13.6893 8.57649 13.6322 8.55313 13.5898 8.51356C13.5474 8.47398 13.5228 8.42112 13.5209 8.36554V5.19488C13.5398 4.82098 13.5277 4.44673 13.4845 4.07454C13.46 3.91494 13.3676 3.77085 13.2278 3.67389C13.088 3.57693 12.9121 3.53503 12.7388 3.55739L12.7366 3.55773C12.572 3.56256 12.4126 3.61151 12.2778 3.69858C12.143 3.78565 12.0387 3.90705 11.9777 4.0479C11.8714 4.42187 11.831 4.80912 11.858 5.19488V8.36537C11.8575 8.39389 11.8509 8.42204 11.8386 8.44821C11.8263 8.47438 11.8085 8.49806 11.7862 8.51788C11.7639 8.53771 11.7376 8.55329 11.7088 8.56374C11.68 8.57419 11.6492 8.5793 11.6183 8.57878H10.3439C10.2836 8.57631 10.2265 8.55296 10.1841 8.51338C10.1417 8.47381 10.1171 8.42095 10.1152 8.36537V5.19488C10.1152 4.528 10.2349 3.54442 9.33458 3.54442C8.43407 3.54442 8.45594 4.50137 8.45594 5.19488V8.36537C8.45548 8.39389 8.44893 8.42205 8.43666 8.44823C8.42438 8.47442 8.40662 8.49812 8.3844 8.51799C8.36218 8.53785 8.33593 8.55349 8.30714 8.56401C8.27835 8.57453 8.2476 8.57972 8.21664 8.5793C8.21293 8.5793 8.20904 8.5793 8.20533 8.57895H6.93094ZM31.179 2.05973C33.0699 2.05973 34.0881 3.51539 34.0881 5.36681C34.0881 7.15949 32.9609 8.5793 31.179 8.5793C29.3246 8.5793 28.3136 7.12039 28.3136 5.30808C28.3136 3.49576 29.3246 2.05973 31.1683 2.05973H31.179ZM30.1764 5.12864C30.1764 5.84571 30.1764 7.37837 31.1768 7.37837C32.1772 7.37837 32.2213 6.14056 32.2213 5.38747C32.243 4.86349 32.1787 4.33917 32.03 3.8321C31.9485 3.48159 31.5889 3.23864 31.1877 3.2622C30.2388 3.2622 30.1764 4.41156 30.1764 5.12864ZM36.5924 8.56547H35.4178C35.301 8.56188 35.2076 8.46866 35.2057 8.35308V2.38003C35.2179 2.26683 35.3162 2.18198 35.4313 2.1842H36.525C36.6254 2.18966 36.7113 2.25795 36.7372 2.35356V3.26271H36.7574C37.0939 2.44969 37.5517 2.06144 38.3662 2.06144C38.9192 2.03498 39.4441 2.30217 39.7427 2.76161C40.049 3.23625 40.049 4.0392 40.049 4.61661V8.39286C40.0334 8.50281 39.9359 8.58339 39.8234 8.57878H38.642C38.5351 8.57503 38.4463 8.49717 38.4302 8.39286V5.1609C38.4302 4.4971 38.5071 3.55483 37.693 3.55483C37.393 3.5702 37.13 3.75715 37.0199 4.03254C36.8723 4.39243 36.808 4.77679 36.8314 5.1609V8.36639C36.826 8.48881 36.7207 8.58442 36.5965 8.57912L36.5924 8.57878V8.56547ZM21.3285 8.48147C21.2881 8.51329 21.238 8.53287 21.1851 8.53751C21.1322 8.54216 21.079 8.53165 21.0328 8.50742C20.7473 8.29613 20.5059 8.03867 20.3207 7.74766C20.0715 8.02412 19.7556 8.24302 19.3982 8.38684C19.0407 8.53065 18.6517 8.5954 18.2622 8.57588C17.1939 8.57588 16.3926 7.98259 16.3926 6.7989C16.3701 5.98503 16.9007 5.24354 17.7244 4.93708C18.401 4.66647 19.3482 4.61098 20.0712 4.54269V4.39244C20.1109 4.10959 20.0576 3.82225 19.918 3.56764C19.8348 3.46823 19.7263 3.38918 19.6021 3.33743C19.478 3.28569 19.3419 3.26285 19.2059 3.2709C18.7304 3.23539 18.3002 3.52854 18.2016 3.95554C18.1951 4.00742 18.1703 4.05593 18.1311 4.09364C18.0919 4.13134 18.0403 4.15618 17.9843 4.16434L16.7772 4.04688C16.7194 4.03609 16.6686 4.00464 16.6359 3.95943C16.6032 3.91422 16.5913 3.85892 16.6028 3.80564C16.8805 2.46539 18.2053 2.06127 19.3946 2.06127C20.0722 2.03991 20.7361 2.24098 21.2677 2.62861C21.8731 3.14695 21.8162 3.83825 21.8162 4.58503V6.362C21.8223 6.75619 21.9902 7.13363 22.2861 7.41849C22.3287 7.45854 22.3526 7.51239 22.3526 7.56848C22.3526 7.62456 22.3287 7.67841 22.2861 7.71847C22.0297 7.91412 21.5739 8.27266 21.3283 8.47822L21.3285 8.48147ZM20.1034 5.72808V5.4911C19.2022 5.4911 18.2548 5.65944 18.2548 6.58908C18.2548 7.06012 18.5315 7.37837 19.0107 7.37837C19.3814 7.36676 19.7145 7.17622 19.8763 6.88239C20.0732 6.52647 20.1521 6.12497 20.1034 5.72808ZM4.92157 8.48164C4.88113 8.5131 4.83124 8.53246 4.77854 8.53712C4.72585 8.54179 4.67286 8.53155 4.62666 8.50776C4.3429 8.29521 4.10233 8.03797 3.91615 7.748C3.66827 8.02374 3.35378 8.24224 2.99782 8.38602C2.64187 8.52981 2.25433 8.59488 1.86619 8.57605C0.818129 8.57622 0.00103669 7.98293 0.00103669 6.79925C-0.0125547 6.40067 0.107773 6.00795 0.345584 5.67472C0.583396 5.34149 0.927095 5.084 1.32974 4.93742C2.00484 4.66681 2.94613 4.61132 3.67091 4.54286V4.39278C3.70897 4.11 3.65585 3.82315 3.51817 3.56798C3.43439 3.46952 3.32606 3.39114 3.20236 3.33948C3.07867 3.28782 2.94327 3.26441 2.80766 3.27125C2.57943 3.25454 2.35238 3.31476 2.16873 3.44069C1.98509 3.56662 1.85735 3.7497 1.80928 3.95588C1.80296 4.00773 1.77833 4.05624 1.73919 4.09396C1.70004 4.13168 1.64854 4.15653 1.59259 4.16468L0.384744 4.04722C0.328322 4.03491 0.279333 4.00282 0.248183 3.95778C0.217032 3.91273 0.206174 3.85828 0.217915 3.80598C0.494851 2.46539 1.81651 2.06127 3.00285 2.06127C3.68031 2.03931 4.34409 2.24045 4.87505 2.62861C5.48268 3.14712 5.42225 3.83842 5.42225 4.5852V6.36217C5.42819 6.75623 5.59572 7.13364 5.89122 7.41866C5.98149 7.4989 5.9839 7.63088 5.8966 7.71369L5.89122 7.71864C5.63912 7.9143 5.18071 8.273 4.93918 8.47839L4.92139 8.48164H4.92157ZM3.71262 5.4911C2.81248 5.4911 1.86267 5.65944 1.86267 6.58908C1.86267 7.06012 2.14257 7.37837 2.61748 7.37837C2.98617 7.36471 3.31686 7.174 3.47869 6.88239C3.6776 6.52705 3.75894 6.12576 3.71262 5.72825V5.4911ZM16.2886 13.5544C12.3744 13.5746 8.59311 12.1706 5.68398 9.61581C5.46266 9.42442 5.65896 9.15978 5.9231 9.30951C9.16274 11.1104 12.8278 12.0549 16.5564 12.0498C19.3362 12.0366 22.0857 11.4889 24.6482 10.4375C25.0301 10.274 25.3619 10.6919 24.973 10.9702C22.6244 12.6557 19.2227 13.5544 16.2886 13.5544ZM25.9048 9.9332C25.5993 9.56783 23.8832 9.75905 23.1123 9.848C22.8759 9.87156 22.8398 9.68052 23.0505 9.54393C24.4213 8.64298 26.6648 8.90232 26.9265 9.20264C27.1883 9.50312 26.8574 11.6122 25.5739 12.6156C25.3739 12.7726 25.1884 12.6873 25.2759 12.4858C25.5632 11.8135 26.2101 10.3018 25.9048 9.9332ZM65.4407 7.58564C65.6799 7.43266 65.8163 7.18305 65.8031 6.92149C65.8074 6.83355 65.7907 6.74581 65.7544 6.66438C65.7181 6.58295 65.663 6.50977 65.5929 6.44993C65.3615 6.28451 65.0984 6.16048 64.8174 6.08422L63.6503 5.69905C62.6391 5.37825 62.1277 4.80083 62.1277 4.00198C62.1101 3.50003 62.3681 3.02129 62.8204 2.71842C63.3444 2.37866 63.9838 2.20793 64.6325 2.23405C65.2266 2.23405 65.8159 2.32864 66.3722 2.5132C66.4616 2.53449 66.543 2.57775 66.6078 2.63834C66.6567 2.70954 66.6795 2.79251 66.6727 2.87566V3.19664C66.6727 3.3409 66.6152 3.41466 66.4955 3.41466C66.3879 3.40736 66.2819 3.38686 66.1802 3.35371C65.6996 3.22578 65.2018 3.161 64.7015 3.16129C63.8244 3.16129 63.3821 3.42115 63.3821 3.94734C63.3767 4.04015 63.3937 4.13289 63.432 4.21889C63.4702 4.30489 63.5287 4.38201 63.6032 4.44468C63.865 4.62012 64.1565 4.75453 64.4659 4.84249L65.5531 5.20495C65.987 5.34162 66.3788 5.5728 66.6949 5.87883C66.9444 6.15552 67.0736 6.50766 67.0573 6.86703C67.0794 7.3992 66.8089 7.90849 66.3325 8.23373C65.7696 8.59825 65.0822 8.77922 64.3862 8.74747C63.6791 8.75617 62.9767 8.64062 62.3166 8.40703C62.2317 8.3797 62.1548 8.33471 62.0919 8.27556C62.046 8.20625 62.0245 8.12558 62.0302 8.04456V7.70481C62.0302 7.56003 62.0847 7.48627 62.1933 7.48627C62.311 7.49738 62.4268 7.52216 62.5377 7.56003C63.1462 7.73052 63.7791 7.81598 64.4151 7.81356C64.7747 7.83623 65.1331 7.75552 65.4407 7.58256V7.58564ZM59.3999 2.48178C59.3913 2.42399 59.4079 2.36542 59.4461 2.31887C59.4842 2.27232 59.5409 2.24158 59.6036 2.23337C59.6251 2.23081 59.6466 2.23081 59.6681 2.23371H60.4548C60.4857 2.22977 60.5172 2.2315 60.5475 2.23881C60.5777 2.24612 60.6061 2.25885 60.6309 2.27629C60.6558 2.29372 60.6767 2.31551 60.6924 2.34041C60.7081 2.3653 60.7183 2.39281 60.7224 2.42134C60.7256 2.44149 60.7256 2.46198 60.7228 2.48178V8.30612C60.7419 8.42752 60.6524 8.54003 60.5232 8.55761C60.5005 8.56093 60.4773 8.56093 60.4546 8.55761H59.8794C59.8074 8.56115 59.7359 8.54384 59.6751 8.5081C59.6163 8.4596 59.5797 8.39226 59.5728 8.31978L59.481 7.88271C58.7586 8.42365 57.8612 8.72755 56.9304 8.74644C56.6613 8.76381 56.3913 8.72824 56.1382 8.64208C55.8852 8.55591 55.655 8.42114 55.4629 8.24671C55.1033 7.85326 54.9214 7.34776 54.9546 6.83442V2.48161C54.9461 2.42375 54.9629 2.36516 55.0011 2.31862C55.0394 2.27208 55.0961 2.24138 55.1589 2.2332C55.1802 2.2305 55.2018 2.23062 55.223 2.23354H56.0097C56.0462 2.2288 56.0834 2.23197 56.1184 2.24278C56.1533 2.2536 56.185 2.27176 56.211 2.29584C56.237 2.31991 56.2566 2.34924 56.2681 2.38149C56.2797 2.41373 56.2829 2.44801 56.2775 2.48161V6.45061C56.2466 6.80087 56.3449 7.1505 56.5565 7.4429C56.6678 7.5583 56.8067 7.64826 56.9622 7.70566C57.1177 7.76306 57.2856 7.78633 57.4526 7.77361C58.1473 7.75582 58.8205 7.54752 59.386 7.17537L59.3999 2.48161V2.48178ZM52.2208 8.57691C52.1897 8.581 52.1581 8.57941 52.1276 8.57222C52.0972 8.56503 52.0686 8.55238 52.0435 8.535C52.0184 8.51762 51.9973 8.49584 51.9813 8.47092C51.9654 8.446 51.9549 8.41843 51.9506 8.38978C51.9468 8.36861 51.9468 8.3471 51.9506 8.32559V4.28283C51.9773 3.95661 51.8873 3.6313 51.6944 3.35661C51.5946 3.25208 51.4695 3.17066 51.3293 3.11893C51.189 3.0672 51.0374 3.04662 50.8869 3.05886C50.1837 3.07287 49.4987 3.26766 48.9093 3.62125C48.915 3.68271 48.915 3.74486 48.9093 3.80649V8.32542C48.9147 8.3594 48.9115 8.39409 48.8999 8.42673C48.8882 8.45937 48.8685 8.48906 48.8422 8.51346C48.816 8.53785 48.7839 8.55627 48.7485 8.56725C48.7132 8.57823 48.6756 8.58148 48.6386 8.57673H47.8458C47.8147 8.58083 47.7831 8.57924 47.7526 8.57205C47.7222 8.56486 47.6936 8.55221 47.6685 8.53483C47.6434 8.51744 47.6223 8.49567 47.6063 8.47075C47.5904 8.44583 47.5799 8.41826 47.5756 8.38961C47.5718 8.36844 47.5718 8.34693 47.5756 8.32542V4.28283C47.6014 3.95712 47.5128 3.63238 47.3229 3.35661C47.2227 3.25254 47.0976 3.17144 46.9574 3.11975C46.8172 3.06805 46.6659 3.0472 46.5154 3.05886C45.816 3.06305 45.1329 3.25376 44.5487 3.60793V8.32525C44.5581 8.38325 44.542 8.44229 44.5041 8.48941C44.4663 8.53653 44.4096 8.56788 44.3467 8.57656C44.3252 8.57945 44.3033 8.5795 44.2818 8.57673H43.4851C43.4484 8.58104 43.4111 8.57746 43.3762 8.56627C43.3413 8.55507 43.3096 8.53658 43.2838 8.51222C43.2579 8.48787 43.2385 8.45833 43.2271 8.42592C43.2157 8.39351 43.2127 8.35911 43.2182 8.32542V2.49954C43.2089 2.44251 43.2245 2.38443 43.2615 2.33795C43.2986 2.29148 43.3541 2.26039 43.4159 2.25147C43.4388 2.24815 43.4622 2.24815 43.4851 2.25147H44.0825C44.1552 2.24805 44.2271 2.26529 44.2888 2.30098C44.3476 2.34844 44.3845 2.41451 44.3921 2.48639L44.4703 2.88659C45.198 2.38036 46.0773 2.09279 46.9887 2.06298C47.8241 2.06298 48.3863 2.35732 48.6853 2.94942C49.4472 2.3984 50.3811 2.08763 51.3494 2.06298C51.8759 2.03242 52.3919 2.20878 52.7721 2.54922C53.1267 2.93437 53.3053 3.43124 53.2702 3.93522V8.32525C53.2756 8.35921 53.2724 8.39389 53.2608 8.42651C53.2492 8.45914 53.2294 8.48882 53.2032 8.51321C53.177 8.53759 53.1449 8.55602 53.1096 8.56701C53.0743 8.57801 53.0367 8.58128 52.9997 8.57656H52.2208V8.57691ZM72.8357 3.77269C72.5067 4.12081 72.3421 4.67756 72.3421 5.44278V5.60259C72.3421 6.34954 72.5113 6.90732 72.8428 7.23342C73.0496 7.42141 73.2983 7.56575 73.5716 7.65643C73.845 7.74711 74.1365 7.78197 74.426 7.75859C74.8325 7.75347 75.236 7.69542 75.6247 7.58564C75.6904 7.56768 75.7577 7.55567 75.8259 7.54978C75.9421 7.54978 75.9986 7.63139 75.9986 7.79444V8.12054C76.0053 8.20215 75.9869 8.28342 75.9456 8.35547C75.89 8.41915 75.8153 8.46542 75.7306 8.48949C75.2487 8.67118 74.7315 8.75991 74.211 8.7502C73.1531 8.7502 72.3597 8.47293 71.8027 7.91873C71.2455 7.36386 70.9704 6.56142 70.9704 5.51125C70.9704 4.4609 71.256 3.66188 71.8309 3.09095C72.1474 2.79776 72.528 2.56994 72.9475 2.42261C73.367 2.27528 73.8157 2.21182 74.2638 2.23644C74.7453 2.23733 75.2229 2.31687 75.6742 2.47137C75.7543 2.49322 75.8262 2.53488 75.8822 2.5919C75.928 2.66737 75.9489 2.75376 75.9421 2.83981V3.1659C75.9421 3.32912 75.8822 3.41073 75.7693 3.41073C75.6963 3.40745 75.624 3.3954 75.5543 3.37488C75.1947 3.27756 74.8215 3.22805 74.4471 3.22805C73.7068 3.25093 73.1707 3.42371 72.8392 3.77269H72.8357ZM69.4002 2.57586C69.5273 2.55878 69.6454 2.6409 69.6634 2.75905C69.6665 2.77834 69.6671 2.79815 69.6641 2.81778V8.50247C69.6694 8.53561 69.6663 8.56944 69.6549 8.60126C69.6435 8.63309 69.6243 8.66204 69.5987 8.68583C69.5731 8.70962 69.5418 8.72759 69.5073 8.73831C69.4729 8.74904 69.4362 8.75223 69.4002 8.74764H68.6257C68.5953 8.75123 68.5644 8.74926 68.5349 8.74184C68.5053 8.73443 68.4776 8.72171 68.4534 8.70442C68.4291 8.68714 68.4089 8.66562 68.3937 8.6411C68.3785 8.61658 68.3687 8.58955 68.3649 8.56154C68.3619 8.54194 68.362 8.52203 68.3653 8.50247V2.82103C68.36 2.78831 68.3631 2.75492 68.3743 2.7235C68.3854 2.69207 68.4044 2.66348 68.4297 2.64C68.455 2.61652 68.4859 2.59878 68.5199 2.58821C68.5539 2.57764 68.5901 2.57452 68.6257 2.5791L69.4002 2.57586ZM69.6308 0.211051C69.927 0.532026 69.927 1.01212 69.6308 1.3331C69.4601 1.46922 69.242 1.54415 69.0163 1.54415C68.7905 1.54415 68.5724 1.46922 68.4018 1.3331C68.1013 1.01417 68.1013 0.529978 68.4018 0.211051C68.5724 0.0749284 68.7905 0 69.0163 0C69.242 0 69.4601 0.0749284 69.6308 0.211051Z" fill="#141010"/>
</svg>
