<svg width="50" height="15" viewBox="0 0 50 15" fill="none" xmlns="http://www.w3.org/2000/svg">
<path d="M7.42669 0C3.32737 0 0 3.32318 0 7.41735C0 11.5204 3.32737 14.8347 7.42669 14.8347C11.5349 14.8347 14.8534 11.5115 14.8534 7.41735C14.8623 3.32318 11.5349 0 7.42669 0ZM10.8339 10.7051C10.7008 10.9266 10.4169 10.9887 10.1951 10.8557C8.44708 9.79232 6.25546 9.55305 3.66454 10.1379C3.4161 10.1911 3.16766 10.0404 3.11442 9.79232C3.06118 9.54418 3.21202 9.29605 3.46046 9.24288C6.29095 8.59597 8.72215 8.87069 10.6742 10.067C10.9049 10.2 10.9759 10.4835 10.8339 10.7051ZM11.7478 8.68459C11.5792 8.9593 11.2243 9.03906 10.9493 8.87955C8.95284 7.64775 5.90941 7.29328 3.54919 8.01109C3.23864 8.09971 2.91921 7.93133 2.83048 7.63003C2.74175 7.31987 2.91034 7.00084 3.22089 6.91222C5.91828 6.09693 9.27227 6.48686 11.5704 7.89588C11.8277 8.0554 11.9164 8.40987 11.7478 8.68459ZM11.8277 6.57547C9.43199 5.15758 5.48351 5.02465 3.19428 5.71588C2.83048 5.83108 2.44007 5.6184 2.32472 5.25506C2.20937 4.89173 2.42233 4.50181 2.78612 4.3866C5.41252 3.58904 9.77803 3.74855 12.5287 5.37913C12.857 5.57409 12.9634 5.99945 12.7682 6.32734C12.5819 6.66409 12.156 6.77043 11.8277 6.57547Z" fill="#141010"/>
<path d="M20.2566 6.85038C18.97 6.54908 18.7482 6.32753 18.7482 5.87558C18.7482 5.45021 19.1475 5.16663 19.742 5.16663C20.3187 5.16663 20.8954 5.38818 21.4988 5.83127C21.5166 5.84899 21.5432 5.84899 21.5609 5.84899C21.5875 5.84899 21.6053 5.83127 21.6142 5.81355L22.2441 4.92736C22.2708 4.89192 22.2619 4.83875 22.2264 4.81216C21.5077 4.23614 20.7002 3.96143 19.7597 3.96143C18.3755 3.96143 17.4084 4.79444 17.4084 5.98192C17.4084 7.25802 18.2424 7.70998 19.6887 8.05559C20.9132 8.33917 21.1261 8.57844 21.1261 8.99494C21.1261 9.46462 20.7091 9.75706 20.0348 9.75706C19.2894 9.75706 18.6772 9.50893 17.994 8.91519C17.9762 8.89746 17.9496 8.89746 17.9319 8.89746C17.9053 8.89746 17.8875 8.90632 17.8786 8.92405L17.1777 9.75706C17.151 9.79251 17.151 9.84568 17.1865 9.87226C17.9851 10.5812 18.9611 10.9534 20.017 10.9534C21.5077 10.9534 22.4748 10.1381 22.4748 8.87974C22.4571 7.81632 21.8271 7.23144 20.2566 6.85038Z" fill="#141010"/>
<path d="M25.8377 5.58301C25.1899 5.58301 24.6576 5.84 24.2228 6.36285V5.77797C24.2228 5.73366 24.1873 5.69821 24.1429 5.69821H22.9983C22.954 5.69821 22.9185 5.73366 22.9185 5.77797V12.3003C22.9185 12.3446 22.954 12.38 22.9983 12.38H24.1429C24.1873 12.38 24.2228 12.3446 24.2228 12.3003V10.2443C24.6576 10.7317 25.1899 10.971 25.8377 10.971C27.0355 10.971 28.26 10.0494 28.26 8.277C28.26 6.5135 27.0355 5.58301 25.8377 5.58301ZM26.9202 8.277C26.9202 9.18091 26.3612 9.80124 25.5715 9.80124C24.7818 9.80124 24.1962 9.14546 24.1962 8.277C24.1962 7.40854 24.7907 6.75277 25.5715 6.75277C26.3523 6.75277 26.9202 7.39082 26.9202 8.277Z" fill="#141010"/>
<path d="M31.3738 5.58301C29.8299 5.58301 28.6143 6.77935 28.6143 8.29473C28.6143 9.80124 29.821 10.9799 31.356 10.9799C32.9088 10.9799 34.1244 9.79238 34.1244 8.277C34.1244 6.77049 32.9177 5.58301 31.3738 5.58301ZM31.3738 9.81896C30.5486 9.81896 29.9275 9.15432 29.9275 8.28586C29.9275 7.40854 30.5308 6.77049 31.356 6.77049C32.1812 6.77049 32.8112 7.43513 32.8112 8.31245C32.8112 9.18091 32.2078 9.81896 31.3738 9.81896Z" fill="#141010"/>
<path d="M37.4345 5.68894H36.1745V4.40398C36.1745 4.35967 36.1391 4.32422 36.0947 4.32422H34.9501C34.9057 4.32422 34.8702 4.35967 34.8702 4.40398V5.6978H34.3201C34.2757 5.6978 34.2402 5.73325 34.2402 5.77756V6.76122C34.2402 6.80553 34.2757 6.84098 34.3201 6.84098H34.8702V9.39318C34.8702 10.4212 35.3849 10.944 36.3964 10.944C36.8045 10.944 37.1506 10.8554 37.47 10.6781C37.4966 10.6604 37.5144 10.6338 37.5144 10.6073V9.6679C37.5144 9.64131 37.4966 9.61473 37.4789 9.597C37.4523 9.57928 37.4256 9.57928 37.399 9.597C37.1772 9.71221 36.9642 9.75652 36.7247 9.75652C36.352 9.75652 36.1923 9.58814 36.1923 9.21595V6.84984H37.4523C37.4966 6.84984 37.5321 6.81439 37.5321 6.77008V5.77756C37.5144 5.73325 37.4789 5.68894 37.4345 5.68894Z" fill="#141010"/>
<path d="M41.8353 5.69811V5.5386C41.8353 5.06892 42.0127 4.8651 42.412 4.8651C42.6516 4.8651 42.8468 4.90941 43.0597 4.9803C43.0864 4.98916 43.113 4.9803 43.1396 4.97144C43.1574 4.95372 43.1751 4.92713 43.1751 4.90055V3.93461C43.1751 3.89916 43.1485 3.86371 43.113 3.85485C42.8823 3.78396 42.5984 3.72192 42.1547 3.72192C41.0899 3.72192 40.5309 4.31567 40.5309 5.44998V5.68925H39.9808C39.9365 5.68925 39.8921 5.7247 39.8921 5.76901V6.76153C39.8921 6.80584 39.9276 6.84129 39.9808 6.84129H40.5309V10.7759C40.5309 10.8202 40.5664 10.8557 40.6108 10.8557H41.7554C41.7998 10.8557 41.8353 10.8202 41.8353 10.7759V6.85015H42.9089L44.5504 10.7848C44.3641 11.2013 44.1777 11.2811 43.9293 11.2811C43.7252 11.2811 43.5123 11.219 43.2993 11.1038C43.2816 11.095 43.255 11.095 43.2283 11.095C43.2106 11.1038 43.184 11.1215 43.1751 11.1393L42.7847 11.99C42.7669 12.0343 42.7847 12.0786 42.8202 12.0963C43.2283 12.3179 43.5921 12.4065 44.0446 12.4065C44.8965 12.4065 45.3579 12.0077 45.7749 10.9532L47.7713 5.81331C47.7802 5.78673 47.7802 5.76014 47.7624 5.73356C47.7447 5.70697 47.7181 5.69811 47.6914 5.69811H46.4936C46.4581 5.69811 46.4226 5.7247 46.4137 5.75128L45.1893 9.24284L43.8761 5.75128C43.8672 5.71583 43.8317 5.69811 43.7962 5.69811H41.8353Z" fill="#141010"/>
<path d="M39.2889 5.68872H38.1443C38.0999 5.68872 38.0645 5.72417 38.0645 5.76848V10.7754C38.0645 10.8197 38.0999 10.8552 38.1443 10.8552H39.2889C39.3333 10.8552 39.3688 10.8197 39.3688 10.7754V5.77734C39.3688 5.73303 39.3333 5.68872 39.2889 5.68872Z" fill="#141010"/>
<path d="M38.7119 3.41187C38.2594 3.41187 37.8867 3.78406 37.8867 4.23601C37.8867 4.68797 38.2594 5.06016 38.7119 5.06016C39.1644 5.06016 39.5371 4.68797 39.5371 4.23601C39.5371 3.78406 39.1733 3.41187 38.7119 3.41187Z" fill="#141010"/>
<path d="M48.783 7.30238C48.3305 7.30238 47.9756 6.93904 47.9756 6.49595C47.9756 6.05286 48.3305 5.68066 48.7919 5.68066C49.2444 5.68066 49.5993 6.044 49.5993 6.48709C49.5905 6.93018 49.2355 7.30238 48.783 7.30238ZM48.783 5.76042C48.366 5.76042 48.0554 6.08831 48.0554 6.49595C48.0554 6.89473 48.366 7.22262 48.783 7.22262C49.2001 7.22262 49.5106 6.89473 49.5106 6.48709C49.5106 6.08831 49.2001 5.76042 48.783 5.76042ZM48.9605 6.57571L49.1912 6.89473H48.996L48.7919 6.60229H48.6144V6.89473H48.4547V6.044H48.8363C49.0315 6.044 49.1646 6.14148 49.1646 6.31872C49.1646 6.45164 49.0758 6.54026 48.9605 6.57571ZM48.8274 6.19465H48.6144V6.4605H48.8274C48.9339 6.4605 48.996 6.40733 48.996 6.32758C48.996 6.23896 48.9339 6.19465 48.8274 6.19465Z" fill="#141010"/>
</svg>
