<svg width="71" height="14" viewBox="0 0 71 14" fill="none" xmlns="http://www.w3.org/2000/svg">
<path d="M22.0047 2.17636C21.8756 1.7557 21.6239 1.37219 21.2745 1.06404C20.9251 0.75588 20.4902 0.533831 20.0132 0.42C18.2671 0 11.2392 0 11.2392 0C11.2392 0 4.2114 0.0127273 2.46527 0.432727C1.98829 0.546558 1.55345 0.768608 1.20405 1.07676C0.854643 1.38492 0.602871 1.76842 0.473803 2.18909C-0.0543673 4.92545 -0.259286 9.09491 0.488234 11.7218C0.617302 12.1425 0.869074 12.526 1.21848 12.8341C1.56788 13.1423 2.00272 13.3644 2.4797 13.4782C4.22584 13.8982 11.2537 13.8982 11.2537 13.8982C11.2537 13.8982 18.2815 13.8982 20.0277 13.4782C20.5046 13.3644 20.9395 13.1423 21.2889 12.8341C21.6383 12.526 21.8901 12.1425 22.0191 11.7218C22.5762 8.98164 22.7479 4.81473 22.0047 2.17636Z" fill="#FF0000"/>
<path d="M9.00244 9.92731L14.8325 6.94913L9.00244 3.97095V9.92731Z" fill="white"/>
<path d="M32.6257 12.6384C32.1783 12.3711 31.8608 11.9638 31.6732 11.4038C31.4856 10.8438 31.3991 10.1056 31.3991 9.17656V7.91655C31.3991 6.98746 31.5001 6.22383 31.7165 5.66383C31.933 5.0911 32.2649 4.68383 32.7267 4.42928C33.1885 4.17474 33.7802 4.03474 34.5161 4.03474C35.2377 4.03474 35.8293 4.16201 36.2623 4.42928C36.6952 4.69656 37.0271 5.10383 37.2291 5.66383C37.4312 6.22383 37.5322 6.97474 37.5322 7.90383V9.16383C37.5322 10.0929 37.4312 10.8311 37.2291 11.3911C37.0271 11.9511 36.7096 12.3584 36.2623 12.6256C35.8149 12.8802 35.2088 13.0202 34.4584 13.0202C33.6791 13.0329 33.073 12.8929 32.6257 12.6384ZM35.1222 11.2766C35.2521 10.9966 35.3098 10.5256 35.3098 9.88928V7.17837C35.3098 6.55474 35.2521 6.09656 35.1222 5.81656C34.9924 5.52383 34.7759 5.38383 34.4728 5.38383C34.1698 5.38383 33.9678 5.52383 33.8379 5.81656C33.708 6.10928 33.6503 6.55474 33.6503 7.17837V9.88928C33.6503 10.5256 33.708 10.9966 33.8235 11.2766C33.9389 11.5566 34.1554 11.6966 34.4728 11.6966C34.7759 11.6966 34.9924 11.5566 35.1222 11.2766ZM66.7548 9.20201V9.64746L66.8125 10.9075C66.8558 11.1875 66.9279 11.3911 67.0434 11.5184C67.1588 11.6456 67.3464 11.7093 67.5917 11.7093C67.9237 11.7093 68.1545 11.5947 68.27 11.3656C68.3999 11.1366 68.4576 10.7547 68.472 10.2329L70.3913 10.3347C70.4058 10.4111 70.4058 10.5129 70.4058 10.6402C70.4058 11.442 70.1604 12.0402 69.6554 12.4347C69.1503 12.8293 68.4576 13.0329 67.5485 13.0329C66.4517 13.0329 65.6869 12.7275 65.2539 12.1293C64.821 11.5311 64.5901 10.5893 64.5901 9.32928V7.78928C64.6392 5.62565 65.0707 4.0411 67.6062 4.03474C68.371 4.03474 68.9482 4.16201 69.3523 4.40383C69.7564 4.64565 70.045 5.02746 70.2182 5.54928C70.3913 6.0711 70.4635 6.78383 70.4635 7.70019V9.18928H66.7548V9.20201ZM67.0434 5.53656C66.9279 5.66383 66.8558 5.85474 66.8125 6.13474C66.7692 6.41474 66.7548 7.40746 66.7548 7.40746V8.0311H68.371V7.40746C68.371 8.0311 68.3566 6.42746 68.3133 6.13474C68.27 5.84201 68.1978 5.63837 68.0824 5.52383C67.9669 5.40928 67.7938 5.34565 67.5629 5.34565C67.3176 5.35837 67.1444 5.42201 67.0434 5.53656ZM27.2285 9.03656L24.7031 0.99292H26.9111C26.9111 0.99292 27.9429 5.02746 28.2964 6.92383H28.3541C28.7553 4.91037 29.7684 0.99292 29.7684 0.99292H31.9763L29.422 9.02383V12.8802H27.243V9.03656H27.2285Z" fill="#141010"/>
<path d="M44.69 4.2002V12.8929H42.9583L42.7707 11.8238H42.7274C42.2512 12.6257 41.5441 13.0329 40.6061 13.0329C38.9075 13.0291 38.7185 11.7602 38.7012 10.6911V4.2002H40.9235V10.5766C40.9235 10.9584 40.9668 11.2384 41.0678 11.4038C41.2728 11.7577 41.8038 11.6673 42.0924 11.4929C42.2591 11.3936 42.3934 11.2576 42.4821 11.0984V4.2002H44.69Z" fill="#141010"/>
<path d="M55.9727 4.2002V12.8929H54.241L54.0534 11.8238H54.0101C53.5339 12.6257 52.8268 13.0329 51.8888 13.0329C50.1903 13.0291 50.0012 11.7602 49.9839 10.6911V4.2002H52.2062V10.5766C52.2062 10.9584 52.2495 11.2384 52.3506 11.4038C52.5555 11.7577 53.0865 11.6673 53.3751 11.4929C53.5418 11.3936 53.6761 11.2576 53.7648 11.0984V4.2002H55.9727Z" fill="#141010"/>
<path d="M50.7221 2.571H48.5142V12.8928H46.3495V2.571H44.1416V0.992818H50.7077V2.571H50.7221ZM63.4068 5.58736C63.277 5.04009 63.0605 4.64555 62.7575 4.391C62.4544 4.14918 62.0503 4.02191 61.5164 4.02191C61.1103 4.02112 60.7133 4.1275 60.3764 4.32736C60.0156 4.531 59.7558 4.79827 59.5538 5.12918H59.5394V0.547363H57.4036V12.8801H59.2363L59.4672 12.0528H59.5105C59.687 12.3442 59.9518 12.5865 60.2753 12.7528C60.6217 12.9183 60.9969 13.0074 61.4154 13.0074C62.1658 13.0074 62.7142 12.7019 63.0749 12.091C63.4213 11.4801 63.6089 10.5255 63.6089 9.24009V7.86555C63.6089 6.89827 63.5367 6.13464 63.4068 5.58736ZM61.3721 9.13827C61.3721 9.77464 61.3432 10.271 61.2855 10.6274C61.2278 10.9837 61.1268 11.2383 60.9825 11.391C60.8381 11.5437 60.6505 11.6201 60.4196 11.6201C59.9723 11.6074 59.7183 11.4292 59.5394 11.1619V6.22373C59.6115 5.98191 59.7414 5.791 59.929 5.63827C60.2465 5.32391 60.7891 5.32009 61.0402 5.63827C61.1701 5.791 61.2422 6.05827 61.2999 6.42736C61.3432 6.79645 61.3721 7.31827 61.3721 8.00555V9.13827Z" fill="#141010"/>
</svg>
