<svg width="28" height="28" viewBox="0 0 28 28" fill="none" xmlns="http://www.w3.org/2000/svg">
<path d="M21.9357 7.03819L22.0797 18.042C22.082 18.2203 22.0523 18.3854 21.9907 18.5374C21.929 18.6894 21.8353 18.8283 21.7096 18.954C21.5839 19.0797 21.4451 19.1734 21.2931 19.235C21.1411 19.2967 20.9759 19.3264 20.7976 19.3241C20.6193 19.3217 20.4533 19.2877 20.2997 19.222C20.146 19.1564 20.0047 19.059 19.8756 18.93C19.7466 18.801 19.6492 18.6596 19.5836 18.5059C19.5179 18.3523 19.4839 18.1863 19.4815 18.008L19.3785 10.1372L8.2925 21.2233C8.16681 21.3489 8.02796 21.4426 7.87597 21.5043C7.72397 21.566 7.55882 21.5957 7.38052 21.5933C7.20221 21.591 7.03623 21.557 6.88257 21.4913C6.7289 21.4256 6.58756 21.3283 6.45853 21.1993C6.32951 21.0702 6.23215 20.9289 6.16647 20.7752C6.10079 20.6216 6.06679 20.4556 6.06445 20.2773C6.06212 20.099 6.09179 19.9338 6.15347 19.7818C6.21515 19.6298 6.30884 19.491 6.43453 19.3653L17.5206 8.27924L9.64979 8.17624C9.47149 8.1739 9.30228 8.13667 9.14217 8.06454C8.98205 7.99241 8.84393 7.89828 8.72781 7.78216C8.59878 7.65313 8.50143 7.51179 8.43575 7.35812C8.37007 7.20446 8.33606 7.03848 8.33373 6.86017C8.3314 6.68187 8.36107 6.51672 8.42275 6.36472C8.48443 6.21273 8.57811 6.07388 8.70381 5.94819C8.8295 5.8225 8.96834 5.72881 9.12034 5.66713C9.27234 5.60545 9.43749 5.57578 9.61579 5.57811L20.6196 5.72212C20.696 5.72313 20.7789 5.73058 20.8682 5.74448C20.9575 5.75838 21.0407 5.79131 21.1178 5.84325C21.1945 5.86972 21.2682 5.9057 21.3389 5.9512C21.4095 5.99669 21.4771 6.05169 21.5416 6.1162C21.6061 6.18072 21.6611 6.24829 21.7066 6.31892C21.7521 6.38955 21.7881 6.46324 21.8145 6.53999C21.8665 6.61707 21.8994 6.70027 21.9133 6.78959C21.9272 6.8789 21.9347 6.96177 21.9357 7.03819Z" fill="#FF4554"/>
</svg>
