<svg width="42" height="44" viewBox="0 0 42 44" fill="none" xmlns="http://www.w3.org/2000/svg">
<path d="M16.9743 27.0524C16.7271 26.5585 16.1263 26.3586 15.6325 26.6058C15.1386 26.853 14.9386 27.4537 15.1859 27.9476L16.0801 27.5L16.9743 27.0524ZM25.9326 28.0227C26.2213 27.5519 26.0736 26.9362 25.6028 26.6475C25.132 26.3588 24.5163 26.5064 24.2276 26.9773L25.0801 27.5L25.9326 28.0227ZM5.6595 13.8832L5.19193 12.9992C5.12223 13.0361 5.05714 13.0811 4.99801 13.1332L5.6595 13.8832ZM6.40938 16.2205L7.40559 16.3074C7.45066 15.7909 7.09357 15.3257 6.58301 15.2357L6.40938 16.2205ZM12.2683 23.429L12.3509 22.4324C12.3234 22.4301 12.2958 22.429 12.2683 22.429V23.429ZM21.0801 17.9026L22.0553 17.6813C21.952 17.2259 21.5471 16.9026 21.0801 16.9026C20.613 16.9026 20.2082 17.2259 20.1049 17.6813L21.0801 17.9026ZM36.5007 13.8832L37.1622 13.1332C37.103 13.0811 37.0379 13.0361 36.9682 12.9992L36.5007 13.8832ZM35.7508 16.2205L35.5771 15.2357C35.0666 15.3257 34.7095 15.7909 34.7546 16.3074L35.7508 16.2205ZM29.8919 23.429V22.429C29.8643 22.429 29.8367 22.4301 29.8092 22.4324L29.8919 23.429ZM17.1601 13.2062L16.8884 14.1686L17.1601 13.2062ZM25.0001 13.2062L24.7284 12.2438L25.0001 13.2062ZM35.0801 21.5H34.0801C34.0801 28.6797 28.2598 34.5 21.0801 34.5V35.5V36.5C29.3643 36.5 36.0801 29.7843 36.0801 21.5H35.0801ZM21.0801 35.5V34.5C13.9004 34.5 8.08008 28.6797 8.08008 21.5H7.08008H6.08008C6.08008 29.7843 12.7958 36.5 21.0801 36.5V35.5ZM7.08008 21.5H8.08008C8.08008 14.3203 13.9004 8.5 21.0801 8.5V7.5V6.5C12.7958 6.5 6.08008 13.2157 6.08008 21.5H7.08008ZM21.0801 7.5V8.5C28.2598 8.5 34.0801 14.3203 34.0801 21.5H35.0801H36.0801C36.0801 13.2157 29.3643 6.5 21.0801 6.5V7.5ZM16.0801 27.5L15.1859 27.9476C16.1329 29.8395 17.939 31.2562 20.0166 31.4718C22.1625 31.6945 24.3426 30.6158 25.9326 28.0227L25.0801 27.5L24.2276 26.9773C22.954 29.0543 21.4522 29.6101 20.2231 29.4825C18.9257 29.3479 17.6637 28.4296 16.9743 27.0524L16.0801 27.5ZM5.6595 13.8832L4.99801 13.1332C4.80618 13.3024 4.60675 13.5584 4.44963 13.8338C4.29027 14.1131 4.12156 14.5042 4.08662 14.9498C4.04937 15.4248 4.16812 15.971 4.59759 16.4254C5.00059 16.8518 5.57614 17.089 6.23574 17.2053L6.40938 16.2205L6.58301 15.2357C6.1559 15.1604 6.04907 15.0495 6.05111 15.0517C6.05549 15.0563 6.06815 15.0736 6.07587 15.0982C6.0824 15.1191 6.07902 15.1249 6.0805 15.1061C6.08449 15.0553 6.11318 14.9539 6.18678 14.8249C6.22022 14.7662 6.25568 14.7148 6.28634 14.6756C6.32031 14.6322 6.33482 14.621 6.32098 14.6332L5.6595 13.8832ZM6.40938 16.2205L5.41316 16.1335C5.31732 17.2317 5.30034 19.2543 6.17561 21.0427C6.62273 21.9563 7.30821 22.819 8.33307 23.4472C9.35642 24.0744 10.655 24.429 12.2683 24.429V23.429V22.429C10.9521 22.429 10.0309 22.142 9.37817 21.7419C8.72691 21.3428 8.27989 20.7926 7.972 20.1635C7.33726 18.8666 7.32028 17.2849 7.40559 16.3074L6.40938 16.2205ZM12.2683 23.429L12.1856 24.4256C15.3162 24.6852 17.5873 24.2703 19.2053 23.102C20.8344 21.9257 21.5999 20.131 22.0553 18.1239L21.0801 17.9026L20.1049 17.6813C19.6908 19.5063 19.0794 20.726 18.0345 21.4805C16.9785 22.2429 15.2784 22.6752 12.3509 22.4324L12.2683 23.429ZM36.5007 13.8832L35.8392 14.6332C35.8253 14.621 35.8398 14.6322 35.8738 14.6756C35.9045 14.7148 35.9399 14.7662 35.9734 14.8249C36.047 14.9539 36.0757 15.0553 36.0797 15.1061C36.0811 15.1249 36.0777 15.1191 36.0843 15.0982C36.092 15.0736 36.1047 15.0563 36.109 15.0517C36.1111 15.0495 36.0043 15.1604 35.5771 15.2357L35.7508 16.2205L35.9244 17.2053C36.584 17.089 37.1596 16.8518 37.5626 16.4254C37.992 15.971 38.1108 15.4248 38.0735 14.9498C38.0386 14.5042 37.8699 14.1131 37.7105 13.8338C37.5534 13.5584 37.354 13.3024 37.1622 13.1332L36.5007 13.8832ZM35.7508 16.2205L34.7546 16.3074C34.8399 17.2849 34.8229 18.8666 34.1882 20.1635C33.8803 20.7926 33.4332 21.3428 32.782 21.7419C32.1292 22.142 31.2081 22.429 29.8919 22.429V23.429V24.429C31.5051 24.429 32.8037 24.0744 33.8271 23.4472C34.8519 22.819 35.5374 21.9563 35.9845 21.0427C36.8598 19.2543 36.8428 17.2317 36.747 16.1335L35.7508 16.2205ZM29.8919 23.429L29.8092 22.4324C26.8817 22.6752 25.1816 22.2429 24.1256 21.4805C23.0807 20.726 22.4693 19.5063 22.0553 17.6813L21.0801 17.9026L20.1049 18.1239C20.5603 20.131 21.3257 21.9257 22.9548 23.102C24.5729 24.2703 26.8439 24.6852 29.9745 24.4256L29.8919 23.429ZM17.1601 13.2062L17.4317 12.2438C12.2124 10.7706 7.58727 11.7322 5.19193 12.9992L5.6595 13.8832L6.12706 14.7672C8.05737 13.7461 12.152 12.8317 16.8884 14.1686L17.1601 13.2062ZM36.5007 13.8832L36.9682 12.9992C34.5729 11.7322 29.9477 10.7706 24.7284 12.2438L25.0001 13.2062L25.2718 14.1686C30.0081 12.8317 34.1028 13.7461 36.0331 14.7672L36.5007 13.8832ZM25.0001 13.2062L24.7284 12.2438C22.3584 12.9128 19.8018 12.9128 17.4317 12.2438L17.1601 13.2062L16.8884 14.1686C19.6137 14.9379 22.5464 14.9379 25.2718 14.1686L25.0001 13.2062Z" fill="#FF4554"/>
</svg>
