<svg width="42" height="42" viewBox="0 0 42 42" fill="none" xmlns="http://www.w3.org/2000/svg">
<path d="M13.5801 21.5V20.5C13.5801 19.9477 13.1324 19.5 12.5801 19.5H8.08008C7.52779 19.5 7.08008 19.9477 7.08008 20.5V33C7.08008 33.5523 7.52779 34 8.08008 34H12.5801C13.1324 34 13.5801 33.5523 13.5801 33V32M13.5801 21.5V32M13.5801 21.5C19.6084 19.9929 22.5137 12.5237 23.5796 8.93353C23.894 7.87464 25.0753 7.05975 25.8576 7.83953C26.5187 8.49851 27.0801 9.70951 27.0801 12C27.0801 13 26.5801 15.5 25.0801 18.5H32.5801C33.5801 18.5 35.4801 19.1 35.0801 21.5L34.0132 27.9013C33.7261 29.6241 33.4263 31.1313 32.2203 32.3947C30.9201 33.7569 28.6274 33.8809 26.7588 33.6473L13.5801 32" stroke="#FF4554" stroke-width="2" stroke-linecap="round" stroke-linejoin="round"/>
</svg>
