<svg width="172" height="25" viewBox="0 0 172 25" fill="none" xmlns="http://www.w3.org/2000/svg">
<g clip-path="url(#clip0_25_54)">
<path d="M61.0468 14.0605L56.5645 19.6143L60.278 24.2122H69.2448L61.0468 14.0605Z" fill="white"/>
<path d="M43.2038 16.592H35.7747L35.7146 16.669C35.2762 17.3295 34.6775 17.867 33.9749 18.231C33.2722 18.5949 32.4888 18.7732 31.6985 18.749C30.5136 18.8149 29.3445 18.4524 28.403 17.7274C27.4615 17.0024 26.8099 15.9627 26.5665 14.7969H43.6867L43.7126 14.6253C43.725 14.5525 43.7344 14.4818 43.7468 14.4173C43.8433 13.8747 43.8884 13.3242 43.8815 12.7731C43.9236 9.41826 42.6734 6.17672 40.3917 3.72489C39.2531 2.53289 37.8833 1.58752 36.3669 0.947006C34.8504 0.306493 33.2193 -0.0155959 31.5742 0.000580453C29.9255 -0.00974216 28.293 0.325844 26.7811 0.985821C25.2693 1.6458 23.9115 2.6156 22.7949 3.83305C20.5948 6.20511 19.3642 9.3211 19.3477 12.5619C19.3512 15.8485 20.6535 18.9994 22.9688 21.3233C25.284 23.6472 28.4232 24.9544 31.6975 24.9579C34.0792 24.9727 36.405 24.2336 38.3443 22.8457C40.4516 21.3417 42.0932 19.2715 43.0805 16.8728L43.2038 16.5889V16.592ZM26.6618 9.74765C27.0193 8.71521 27.6883 7.82014 28.5757 7.18672C29.4632 6.55329 30.5251 6.21295 31.614 6.21295C32.703 6.21295 33.7649 6.55329 34.6524 7.18672C35.5398 7.82014 36.2088 8.71521 36.5663 9.74765H26.6639H26.6618Z" fill="white"/>
<path d="M96.9953 0.788277H96.8358L96.7995 0.94428L93.5149 14.6424L89.877 0.93804L89.8366 0.788277H83.741L83.7026 0.940119L80.101 14.6382L76.8195 0.94428L76.7833 0.788277H69.2422L69.323 1.0514L76.347 24.0691L76.3916 24.2126H83.0602L83.0985 24.0608L86.7882 9.76781L90.478 24.0608L90.5163 24.2126H97.1849L97.2295 24.0691L104.254 1.04828L104.334 0.785156H96.9953V0.788277Z" fill="white"/>
<path d="M122.868 0.78758H122.668V2.89362C121.906 1.86296 119.99 0.000284835 116.092 0.000284835C114.571 -0.0104412 113.063 0.281865 111.655 0.860277C110.247 1.43869 108.967 2.29171 107.89 3.36995C106.724 4.57439 105.811 6.00143 105.205 7.56654C104.598 9.13165 104.311 10.803 104.36 12.4816C104.297 15.6821 105.394 18.7966 107.447 21.2469C108.526 22.4687 109.86 23.4381 111.353 24.0869C112.847 24.7358 114.463 25.0482 116.09 25.0024C117.467 25.0153 118.83 24.7371 120.093 24.1859C121.125 23.747 122.016 23.0304 122.668 22.1153V24.213H129.931V0.78758H122.871H122.868ZM122.668 12.4795C122.697 13.2235 122.575 13.9657 122.308 14.6605C122.041 15.3554 121.636 15.9884 121.118 16.5208C120.599 17.0531 119.978 17.4737 119.292 17.7569C118.605 18.04 117.869 18.1797 117.127 18.1674C113.062 18.1674 111.626 14.391 111.626 12.5627C111.626 11.1782 112.089 9.83373 112.939 8.74373C113.435 8.12446 114.068 7.62952 114.787 7.2981C115.506 6.96669 116.293 6.80788 117.084 6.83426C117.826 6.81196 118.566 6.94303 119.256 7.21935C119.946 7.49568 120.573 7.91136 121.096 8.44064C121.62 8.96992 122.03 9.6015 122.3 10.2963C122.571 10.991 122.696 11.7341 122.668 12.4795Z" fill="white"/>
<path d="M168.51 3.7177C167.371 2.52682 166.001 1.58267 164.484 0.943404C162.968 0.304141 161.337 -0.0166926 159.692 0.000668773C158.044 -0.00965384 156.411 0.325932 154.899 0.98591C153.387 1.64589 152.03 2.61569 150.913 3.83314C148.713 6.2052 147.482 9.32119 147.466 12.562C147.469 15.8486 148.772 18.9994 151.087 21.3234C153.402 23.6473 156.541 24.9544 159.816 24.958C162.197 24.9728 164.523 24.2337 166.462 22.8457C168.57 21.3419 170.211 19.2716 171.199 16.8729L171.322 16.589H163.893L163.833 16.6659C163.394 17.3264 162.796 17.864 162.093 18.2279C161.39 18.5918 160.607 18.7701 159.817 18.746C158.632 18.8119 157.463 18.4494 156.521 17.7244C155.58 16.9993 154.928 15.9597 154.685 14.7939H171.807L171.833 14.6223C171.845 14.5495 171.855 14.4809 171.865 14.4143C171.961 13.8717 172.007 13.3212 172 12.77C172.042 9.41523 170.792 6.17369 168.51 3.72186V3.7177ZM154.78 9.74982C155.137 8.71738 155.806 7.82231 156.694 7.18889C157.581 6.55546 158.643 6.21512 159.732 6.21512C160.821 6.21512 161.883 6.55546 162.771 7.18889C163.658 7.82231 164.327 8.71738 164.684 9.74982H154.782H154.78Z" fill="white"/>
<path d="M145.988 0.0352712C144.908 0.0297783 143.836 0.221125 142.824 0.600002C141.849 0.962391 140.945 1.49589 140.155 2.17563L140.133 0.788246H132.871V24.2137H140.155V11.1593C140.149 10.6356 140.248 10.116 140.444 9.63099C140.641 9.14593 140.932 8.70517 141.301 8.33456C141.669 7.96395 142.108 7.67094 142.591 7.47272C143.074 7.2745 143.592 7.17505 144.113 7.18021C144.696 7.18129 145.272 7.30976 145.8 7.55669L148.566 0.407598C147.728 0.163462 146.86 0.0381387 145.988 0.0352712Z" fill="white"/>
<path d="M69.014 0.788149H60.2669L56.5596 5.38608L61.0461 10.9398L69.2441 0.787109L69.014 0.788149Z" fill="white"/>
<path d="M54.957 6.5197L50.3306 0.787109H41.3213L45.9487 6.5197L50.7782 12.5009L45.9487 18.4799L41.3213 24.2125H50.3306L54.957 18.4799L59.7843 12.5009L54.957 6.5197Z" fill="white"/>
<path d="M16.0602 17.3297H8.14928V0.787109H0V24.2125H18.7449V17.3297H16.0602Z" fill="white"/>
</g>
<defs>
<clipPath id="clip0_25_54">
<rect width="172" height="25" fill="white"/>
</clipPath>
</defs>
</svg>
