<svg width="127" height="36" viewBox="0 0 127 36" fill="none" xmlns="http://www.w3.org/2000/svg">
<g clip-path="url(#clip0_4_249)">
<path d="M45.0569 9.80469L41.7485 13.8751L44.4896 17.2451H46.3492H48.73H51.1077L45.0569 9.80469Z" fill="#FF4554"/>
<path d="M31.8877 11.6593H26.4041L26.3595 11.7157C25.6314 12.6312 24.8482 13.2397 23.3951 13.2397C21.4535 13.2397 19.9527 12.0837 19.6073 10.3445H32.2451L32.2644 10.2184C32.2734 10.165 32.2808 10.113 32.2897 10.0641C32.3433 9.73314 32.3895 9.44823 32.3895 8.85911C32.3895 6.31566 31.4738 3.96068 29.8137 2.22448C28.1312 0.467519 25.819 -0.5 23.3042 -0.5C20.7895 -0.5 18.5279 0.497197 16.8246 2.30907C15.2076 4.03042 14.28 6.36167 14.28 8.70627C14.28 13.716 18.3685 17.7908 23.3951 17.7908C25.1877 17.7908 26.885 17.2552 28.301 16.2431C29.772 15.2444 30.9825 13.7308 31.7969 11.8655L31.8877 11.6578V11.6593ZM19.6788 6.64361C20.2163 4.60322 22.2114 4.05268 23.334 4.05268C24.4566 4.05268 26.4503 4.60322 26.9893 6.64361H19.6803H19.6788Z" fill="#FF4554"/>
<path d="M71.5907 0.0771484H71.4731L71.4463 0.191411L69.0224 10.2302L66.3364 0.186959L66.3066 0.0771484H66.192H61.9218H61.8072L61.7789 0.188443L59.1212 10.2272L56.6987 0.191411L56.6719 0.0771484H56.5543H51.3089H51.1064L51.166 0.268575L56.3503 17.1393L56.3831 17.2447H56.4933H61.1908H61.3054L61.3337 17.1334L64.0569 6.65835L66.7801 17.1334L66.8084 17.2447H66.9245H71.6205H71.7307L71.7634 17.1393L76.9478 0.268575L77.0073 0.0771484H76.8063H71.5907Z" fill="#FF4554"/>
<path d="M90.686 0.0772465H90.5371V1.62053C89.9743 0.86521 88.5599 -0.5 85.6833 -0.5C83.377 -0.5 81.2271 0.376999 79.631 1.96777C77.9262 3.66686 77.0254 5.97585 77.0254 8.64542C77.0254 11.1206 77.8353 13.4014 79.3034 15.0693C80.8891 16.8693 83.0956 17.822 85.6833 17.822C86.7434 17.822 87.7663 17.6157 88.6373 17.224C89.4547 16.8575 90.1039 16.3366 90.5356 15.7074V17.2448H95.8957V0.0772465H90.6845H90.686ZM90.5371 8.64542C90.5371 10.3208 89.4473 12.8138 86.4471 12.8138C83.447 12.8138 82.3869 10.0462 82.3869 8.70627C82.3869 7.69275 82.7398 6.67329 83.3562 5.90759C83.8698 5.2695 84.8183 4.50824 86.4159 4.50824C88.4631 4.50824 90.5371 5.92984 90.5371 8.64542Z" fill="#FF4554"/>
<path d="M124.373 2.22448C122.691 0.467519 120.38 -0.5 117.866 -0.5C115.351 -0.5 113.089 0.497197 111.386 2.30907C109.769 4.03042 108.841 6.36167 108.841 8.70627C108.841 13.716 112.93 17.7908 117.956 17.7908C119.749 17.7908 121.446 17.2552 122.862 16.2431C124.333 15.2444 125.544 13.7308 126.358 11.8655L126.449 11.6578H120.965L120.921 11.7142C120.193 12.6298 119.41 13.2382 117.956 13.2382C116.015 13.2382 114.514 12.0822 114.169 10.343H126.806L126.826 10.2169C126.835 10.1635 126.842 10.113 126.85 10.0626C126.903 9.73166 126.949 9.44674 126.949 8.85763C126.949 6.31418 126.034 3.95919 124.373 2.223V2.22448ZM114.24 6.64361C114.778 4.60322 116.773 4.05268 117.895 4.05268C119.018 4.05268 121.013 4.60322 121.551 6.64361H114.242H114.24Z" fill="#FF4554"/>
<path d="M107.75 -0.474609C106.931 -0.474609 106.153 -0.336604 105.416 -0.0605946C104.677 0.215415 104.02 0.599752 103.444 1.0939L103.428 0.0774104H98.0693V17.2449H103.444V7.67807C103.444 7.13792 103.574 6.64674 103.833 6.20453C104.092 5.76232 104.443 5.41212 104.888 5.15243C105.332 4.89423 105.825 4.76513 106.367 4.76513C106.793 4.76513 107.208 4.85713 107.612 5.04114L109.653 -0.198599C109.007 -0.382606 108.373 -0.474609 107.75 -0.474609Z" fill="#FF4554"/>
<path d="M50.941 0.0771484H48.73H46.3493H44.4852L41.7456 3.44714L45.0569 7.51754L51.1078 0.0771484H50.941Z" fill="#FF4554"/>
<path d="M40.565 4.27814L37.148 0.0771484H30.4985L33.9141 4.27814L37.4785 8.66165L33.9141 13.0437L30.4985 17.2447H36.9812H37.148L40.565 13.0437L44.1279 8.66165L40.565 4.27814Z" fill="#FF4554"/>
<path d="M11.8546 12.2008H6.01515V0.0771484H0V12.2008V17.0963V17.2447H0.14889H5.21114H5.36003H11.8546H11.932H13.8348V12.2008H11.932H11.8546Z" fill="#FF4554"/>
<path d="M74.281 28.3574C74.281 24.0006 77.64 21.1025 81.5409 21.1025C85.6875 21.1025 88.8201 24.3004 88.8201 28.2832C88.8201 32.2661 85.6875 35.464 81.5215 35.464C77.3556 35.464 74.2795 32.1919 74.2795 28.3767V28.3574H74.281ZM76.4757 28.2832C76.4757 31.1635 78.6152 33.5185 81.5781 33.5185C84.541 33.5185 86.6061 30.9944 86.6061 28.3011C86.6061 25.6077 84.5991 23.0465 81.5602 23.0465C78.5214 23.0465 76.4757 25.4771 76.4757 28.264V28.2832Z" fill="black"/>
<path d="M115.008 31.6288C114.389 33.8354 112.382 35.4988 109.83 35.4988C106.49 35.4988 104.37 32.9376 104.37 30.1137C104.37 27.1028 106.678 24.7285 109.736 24.7285C112.175 24.7285 114.369 26.2243 115.008 28.6743H113.001C112.475 27.3091 111.199 26.5419 109.812 26.5419C108.78 26.5226 108.03 26.8594 107.316 27.5331C106.716 28.1312 106.322 29.0853 106.322 30.1137C106.322 32.2075 107.86 33.6855 109.812 33.6855C111.52 33.6662 112.589 32.6378 113.001 31.6288H115.008Z" fill="black"/>
<path d="M118.244 30.7315C118.338 32.7882 120.139 33.8358 121.677 33.8358C123.047 33.8358 124.059 33.1814 124.622 32.116H126.649C126.16 33.2378 125.449 34.0792 124.585 34.6401C123.721 35.2203 122.709 35.5008 121.677 35.5008C118.338 35.5008 116.274 32.8268 116.274 30.1349C116.274 27.2175 118.562 24.7305 121.658 24.7305C123.121 24.7305 124.454 25.2721 125.429 26.2263C126.629 27.4416 127.137 29.0309 126.967 30.7329H118.244V30.7315ZM125.036 29.2164C124.942 27.8705 123.592 26.3554 121.659 26.3925C119.67 26.3925 118.376 27.8319 118.282 29.2164H125.036Z" fill="black"/>
<path d="M102.978 21.3643H101.028V23.421H102.978V21.3643Z" fill="black"/>
<path d="M101.028 25.029H98.1392V24.431C98.1392 22.6547 99.3586 22.6547 100.015 22.6354V21.1025C98.5709 21.1218 96.1872 21.2702 96.1872 24.3375V25.029H93.0918V24.431C93.0918 22.6547 94.3112 22.6547 94.9678 22.6354V21.1025C93.5236 21.1218 91.1399 21.2702 91.1399 24.3375V25.029H89.7522V26.5441H91.1399V35.2013H93.0918V26.5441H96.1872V35.2013H98.1377V26.5441H100.014H101.026V35.2013H102.977V25.029H101.026H101.028Z" fill="black"/>
</g>
<defs>
<clipPath id="clip0_4_249">
<rect width="127" height="36" fill="white"/>
</clipPath>
</defs>
</svg>
