<svg width="34" height="34" viewBox="0 0 34 34" fill="none" xmlns="http://www.w3.org/2000/svg">
<path d="M11.19 26.5294L15.0418 18.3235M15.0418 18.3235C13.9594 17.8412 12.4931 16.7372 11.19 14.8974M15.0418 18.3235H18.7733M8.16316 2.82353C8.1895 2.2344 8.23494 1.62667 8.30113 1H25.0927C25.1547 1.62667 25.1973 2.2344 25.222 2.82353M8.16316 2.82353H2.04191C1.72092 6.01004 3.10116 12.8859 11.19 14.8974M8.16316 2.82353C7.91203 8.43961 9.39646 12.3653 11.19 14.8974M22.3844 26.5294L18.7733 18.3235M18.7733 18.3235C19.788 17.8412 21.1627 16.7372 22.3844 14.8974M25.222 2.82353H30.9607C31.2616 6.01004 29.9677 12.8859 22.3844 14.8974M25.222 2.82353C25.4575 8.43961 24.0658 12.3653 22.3844 14.8974M6.37522 26.9853V32H26.8982V26.9853H6.37522Z" stroke="#FF4554" stroke-width="2" stroke-linecap="round" stroke-linejoin="round"/>
</svg>
