<svg width="115" height="26" viewBox="0 0 115 26" fill="none" xmlns="http://www.w3.org/2000/svg">
<path fill-rule="evenodd" clip-rule="evenodd" d="M0.452971 0.392425C0.165841 0.703106 0 1.17783 0 1.79919V23.8376C0 24.459 0.165841 24.9337 0.462871 25.232L0.539604 25.2991L12.8366 12.9514V12.6755L0.529703 0.325317L0.452971 0.392425Z" fill="url(#paint0_linear_84_2627)"/>
<path fill-rule="evenodd" clip-rule="evenodd" d="M16.9282 17.0798L12.8267 12.9614V12.6731L16.9282 8.55469L17.0173 8.60937L21.8688 11.3782C23.2574 12.1636 23.2574 13.461 21.8688 14.2563L17.0173 17.0251L16.9282 17.0798Z" fill="url(#paint1_linear_84_2627)"/>
<path fill-rule="evenodd" clip-rule="evenodd" d="M17.0175 17.0251L12.8269 12.8173L0.453125 25.242C0.906096 25.7292 1.666 25.7838 2.51501 25.3091L17.0175 17.0251Z" fill="url(#paint2_linear_84_2627)"/>
<path fill-rule="evenodd" clip-rule="evenodd" d="M17.0175 8.6095L2.51501 0.337929C1.666 -0.149218 0.903621 -0.0821108 0.453125 0.405037L12.8269 12.8174L17.0175 8.6095Z" fill="url(#paint3_linear_84_2627)"/>
<path opacity="0.2" fill-rule="evenodd" clip-rule="evenodd" d="M16.9283 16.9357L2.52479 25.1525C1.72032 25.6173 1.0025 25.585 0.539624 25.1625L0.462891 25.2395L0.539624 25.3066C1.0025 25.7267 1.72032 25.7615 2.52479 25.2967L17.0274 17.0251L16.9283 16.9357Z" fill="#141010"/>
<path opacity="0.12" fill-rule="evenodd" clip-rule="evenodd" d="M21.869 14.1122L16.916 16.9356L17.0051 17.0251L21.8566 14.2563C22.5522 13.8587 22.8937 13.3367 22.8937 12.8173C22.8517 13.2945 22.4977 13.7468 21.869 14.1122Z" fill="#141010"/>
<path opacity="0.25" fill-rule="evenodd" clip-rule="evenodd" d="M2.51485 0.482033L21.8688 11.5224C22.4976 11.8778 22.8515 12.3426 22.906 12.8173C22.906 12.2978 22.5644 11.7759 21.8688 11.3782L2.51485 0.337876C1.12624 -0.459952 0 0.206148 0 1.79932V1.94348C0 0.347818 1.12624 -0.305854 2.51485 0.482033Z" fill="#141010"/>
<path fill-rule="evenodd" clip-rule="evenodd" d="M58.0768 9.35709C55.751 9.35709 53.8658 11.0641 53.8658 13.4186C53.8658 15.7517 55.7634 17.4801 58.0768 17.4801C60.4026 17.4801 62.2878 15.7612 62.2878 13.4186C62.2878 11.0641 60.4026 9.35709 58.0768 9.35709ZM58.0768 15.8707C56.8044 15.8707 55.7092 14.8518 55.7092 13.4091C55.7092 11.9449 56.8069 10.9474 58.0768 10.9474C59.3492 10.9474 60.4444 11.9449 60.4444 13.4091C60.4469 14.8613 59.3492 15.8707 58.0768 15.8707ZM48.8894 9.35709C46.5637 9.35709 44.6784 11.0641 44.6784 13.4186C44.6784 15.7517 46.576 17.4801 48.8894 17.4801C51.2152 17.4801 53.1004 15.7612 53.1004 13.4186C53.1004 11.0641 51.2127 9.35709 48.8894 9.35709ZM48.8894 15.8707C47.617 15.8707 46.5218 14.8518 46.5218 13.4091C46.5218 11.9449 47.6195 10.9474 48.8894 10.9474C50.1618 10.9474 51.257 11.9449 51.257 13.4091C51.257 14.8613 50.1618 15.8707 48.8894 15.8707ZM37.9571 10.5974V12.3163H42.2222C42.0918 13.2805 41.762 13.9923 41.2575 14.4804C40.6324 15.0851 39.6676 15.7421 37.967 15.7421C35.3459 15.7421 33.2958 13.6947 33.2958 11.1593C33.2958 8.62383 35.3459 6.57642 37.967 6.57642C39.3821 6.57642 40.4133 7.11684 41.1787 7.80724L42.4388 6.58832C41.3756 5.60271 39.9605 4.84802 37.9768 4.84802C34.3811 4.84802 31.3638 7.68107 31.3638 11.1498C31.3638 14.628 34.3786 17.4515 37.9768 17.4515C39.9186 17.4515 41.3756 16.8373 42.5274 15.6803C43.7014 14.5447 44.073 12.9424 44.073 11.6497C44.073 11.2474 44.041 10.8855 43.9746 10.5784H37.9547C37.9571 10.576 37.9571 10.5974 37.9571 10.5974ZM82.6733 11.9354C82.3213 11.0236 81.2581 9.34756 79.0776 9.34756C76.9167 9.34756 75.1201 10.9926 75.1201 13.4091C75.1201 15.6898 76.897 17.4705 79.2868 17.4705C81.2064 17.4705 82.3238 16.3349 82.784 15.6683L81.359 14.7446C80.8865 15.4231 80.2294 15.8683 79.2966 15.8683C78.354 15.8683 77.6944 15.4541 77.2563 14.6375L82.8702 12.3877C82.8702 12.3901 82.6733 11.9354 82.6733 11.9354ZM76.9487 13.2924C76.9044 11.7235 78.2088 10.926 79.1416 10.926C79.8774 10.926 80.4903 11.2759 80.6995 11.7854L76.9487 13.2924ZM72.3882 17.2277H74.2316V5.2956H72.3882V17.2277ZM69.3611 10.2594H69.2946C68.8787 9.78085 68.0887 9.34756 67.0796 9.34756C64.9852 9.34756 63.0557 11.1307 63.0557 13.421C63.0557 15.7017 64.9753 17.4634 67.0796 17.4634C68.0763 17.4634 68.8787 17.0277 69.2946 16.5397H69.3611V17.123C69.3611 18.6728 68.5046 19.5084 67.1239 19.5084C65.9942 19.5084 65.2928 18.7228 65.0073 18.0657L63.4051 18.7133C63.8654 19.7846 65.0935 21.1106 67.1214 21.1106C69.2823 21.1106 71.1134 19.8798 71.1134 16.8777V9.5904H69.3709V10.2594C69.3734 10.2594 69.3611 10.2594 69.3611 10.2594ZM67.2445 15.8707C65.9721 15.8707 64.9089 14.8422 64.9089 13.421C64.9089 11.9878 65.9721 10.9498 67.2445 10.9498C68.5046 10.9498 69.4817 11.9997 69.4817 13.421C69.494 14.8422 68.507 15.8707 67.2445 15.8707ZM91.3044 5.2956H86.8966V17.2277H88.7399V12.7091H91.3069C93.3472 12.7091 95.353 11.2783 95.353 9.00712C95.353 6.73593 93.3545 5.2956 91.3044 5.2956ZM91.3586 11.0426H88.7375V6.94781H91.3586C92.7393 6.94781 93.5194 8.05008 93.5194 8.99522C93.5194 9.93084 92.7294 11.0426 91.3586 11.0426ZM102.741 9.33566C101.402 9.33566 100.022 9.90941 99.4508 11.1593L101.085 11.8164C101.437 11.1593 102.082 10.9355 102.763 10.9355C103.718 10.9355 104.683 11.4878 104.705 12.4734V12.5996C104.375 12.4187 103.652 12.1425 102.786 12.1425C101.021 12.1425 99.2317 13.0758 99.2317 14.8256C99.2317 16.4278 100.679 17.4563 102.291 17.4563C103.529 17.4563 104.211 16.9158 104.636 16.2897H104.703V17.2134H106.48V12.6425C106.48 10.5141 104.846 9.33566 102.741 9.33566ZM102.51 15.8707C101.907 15.8707 101.063 15.585 101.063 14.8518C101.063 13.928 102.116 13.5781 103.014 13.5781C103.827 13.5781 104.211 13.7471 104.693 13.9804C104.56 15.0517 103.625 15.8612 102.51 15.8707ZM112.962 9.5904L110.846 14.7661H110.779L108.586 9.5904H106.603L109.893 16.8254L108.018 20.8464H109.938L115 9.5904H112.962ZM96.3694 17.2277H98.2128V5.2956H96.3694V17.2277Z" fill="#141010"/>
<defs>
<linearGradient id="paint0_linear_84_2627" x1="11.7336" y1="1.56142" x2="-7.97482" y2="6.79121" gradientUnits="userSpaceOnUse">
<stop stop-color="#00A0FF"/>
<stop offset="0.00657" stop-color="#00A1FF"/>
<stop offset="0.2601" stop-color="#00BEFF"/>
<stop offset="0.5122" stop-color="#00D2FF"/>
<stop offset="0.7604" stop-color="#00DFFF"/>
<stop offset="1" stop-color="#00E3FF"/>
</linearGradient>
<linearGradient id="paint1_linear_84_2627" x1="23.6797" y1="12.8173" x2="-0.337661" y2="12.8173" gradientUnits="userSpaceOnUse">
<stop stop-color="#FFE000"/>
<stop offset="0.4087" stop-color="#FFBD00"/>
<stop offset="0.7754" stop-color="#FFA500"/>
<stop offset="1" stop-color="#FF9C00"/>
</linearGradient>
<linearGradient id="paint2_linear_84_2627" x1="14.7388" y1="15.1069" x2="-1.17071" y2="41.7742" gradientUnits="userSpaceOnUse">
<stop stop-color="#FF3A44"/>
<stop offset="1" stop-color="#C31162"/>
</linearGradient>
<linearGradient id="paint3_linear_84_2627" x1="-2.66273" y1="-6.93773" x2="4.43517" y2="4.9723" gradientUnits="userSpaceOnUse">
<stop stop-color="#32A071"/>
<stop offset="0.0685" stop-color="#2DA771"/>
<stop offset="0.4762" stop-color="#15CF74"/>
<stop offset="0.8009" stop-color="#06E775"/>
<stop offset="1" stop-color="#00F076"/>
</linearGradient>
</defs>
</svg>
