<svg width="130" height="43" viewBox="0 0 130 43" fill="none" xmlns="http://www.w3.org/2000/svg">
<g clip-path="url(#clip0_81_2427)">
<path d="M119.11 -0.389509H10.6616C10.2663 -0.389509 9.87574 -0.389509 9.48147 -0.387359C9.15144 -0.385209 8.82403 -0.378963 8.49083 -0.373706C7.76695 -0.365212 7.04478 -0.301707 6.33059 -0.183743C5.6174 -0.0632111 4.92655 0.164026 4.28141 0.490282C3.63705 0.819298 3.04829 1.24682 2.53647 1.75734C2.02197 2.26643 1.59309 2.85486 1.26633 3.50001C0.938667 4.14388 0.711465 4.83385 0.592569 5.54608C0.472544 6.25742 0.407957 6.97695 0.399389 7.69823C0.389385 8.02783 0.388328 8.35852 0.383057 8.68816V33.536C0.388328 33.8698 0.389385 34.1931 0.399389 34.527C0.40796 35.2483 0.472547 35.9678 0.592569 36.6791C0.711136 37.3917 0.938352 38.0821 1.26633 38.7262C1.59294 39.3693 2.02188 39.9553 2.53647 40.4616C3.04635 40.9744 3.63549 41.4022 4.28141 41.7287C4.92654 42.0558 5.61732 42.2844 6.33059 42.4068C7.0449 42.5238 7.767 42.5873 8.49083 42.5968C8.82403 42.6042 9.15144 42.6083 9.48147 42.6083C9.87573 42.6105 10.2663 42.6105 10.6616 42.6105H119.11C119.498 42.6105 119.891 42.6105 120.279 42.6083C120.607 42.6083 120.944 42.6042 121.273 42.5968C121.995 42.5878 122.716 42.5243 123.429 42.4068C124.144 42.2835 124.838 42.055 125.486 41.7287C126.131 41.402 126.72 40.9742 127.229 40.4616C127.742 39.9533 128.172 39.3677 128.503 38.7262C128.828 38.0816 129.054 37.3913 129.17 36.6791C129.291 35.9677 129.357 35.2483 129.37 34.527C129.375 34.1931 129.375 33.8698 129.375 33.536C129.383 33.1454 129.383 32.757 129.383 32.3602V9.86183C129.383 9.46815 129.383 9.07763 129.375 8.68816C129.375 8.35852 129.375 8.02783 129.37 7.69819C129.357 6.97685 129.291 6.25747 129.17 5.54604C129.053 4.83422 128.828 4.14431 128.503 3.49997C127.838 2.20683 126.782 1.15422 125.486 0.490185C124.838 0.164726 124.144 -0.0624502 123.429 -0.18384C122.716 -0.302323 121.995 -0.36585 121.273 -0.373857C120.944 -0.379103 120.607 -0.385402 120.279 -0.387498C119.891 -0.389648 119.498 -0.389648 119.11 -0.389648V-0.389509Z" fill="#A6A6A6"/>
<path d="M9.48678 41.6699C9.15833 41.6699 8.83781 41.6657 8.51194 41.6584C7.83686 41.6496 7.16336 41.591 6.49697 41.4831C5.87559 41.3763 5.27364 41.1778 4.71097 40.8941C4.15347 40.6127 3.64498 40.2437 3.20498 39.8012C2.75862 39.364 2.387 38.8569 2.10485 38.3C1.8196 37.7395 1.62219 37.1387 1.51949 36.5185C1.40859 35.8521 1.34859 35.1783 1.34 34.5029C1.33317 34.2762 1.32422 33.5213 1.32422 33.5213V8.68819C1.32422 8.68819 1.33375 7.94492 1.34005 7.72656C1.34828 7.05219 1.40793 6.37943 1.5185 5.71408C1.62138 5.09222 1.81895 4.48968 2.10436 3.92732C2.38547 3.37081 2.75502 2.86332 3.1987 2.42453C3.64187 1.98157 4.15199 1.61067 4.71045 1.32537C5.27182 1.04252 5.87263 0.84541 6.49275 0.740638C7.16134 0.631596 7.83717 0.572643 8.51459 0.564273L9.4873 0.551147H120.274L121.258 0.5648C121.929 0.572754 122.599 0.631181 123.261 0.739584C123.888 0.845671 124.495 1.04416 125.063 1.32852C126.181 1.90348 127.092 2.81312 127.666 3.92995C127.947 4.48842 128.141 5.08604 128.243 5.70254C128.355 6.37334 128.417 7.05139 128.43 7.73129C128.433 8.03573 128.433 8.36274 128.433 8.68819C128.442 9.09131 128.442 9.47501 128.442 9.86186V32.3602C128.442 32.7507 128.442 33.1318 128.433 33.516C128.433 33.8656 128.433 34.1859 128.429 34.5154C128.417 35.1832 128.355 35.8492 128.245 36.508C128.144 37.1326 127.948 37.7381 127.663 38.3032C127.379 38.8541 127.009 39.3568 126.568 39.7928C126.128 40.2377 125.618 40.6088 125.06 40.892C124.493 41.178 123.887 41.3772 123.261 41.4831C122.595 41.5916 121.921 41.6502 121.246 41.6584C120.931 41.6657 120.6 41.6699 120.279 41.6699L119.11 41.672L9.48678 41.6699Z" fill="black"/>
<path d="M27.0843 21.4337C27.0959 20.5365 27.3349 19.6567 27.7791 18.8763C28.2233 18.0959 28.8582 17.4402 29.6248 16.9703C29.1378 16.2767 28.4953 15.7059 27.7484 15.3033C27.0016 14.9007 26.1708 14.6772 25.3222 14.6507C23.512 14.4613 21.757 15.7309 20.8345 15.7309C19.8942 15.7309 18.4739 14.6696 16.9445 14.7009C15.9552 14.7328 14.9911 15.0197 14.1461 15.5336C13.301 16.0475 12.6039 16.7709 12.1226 17.6334C10.0377 21.233 11.5929 26.5231 13.59 29.4327C14.5892 30.8574 15.757 32.4489 17.2851 32.3925C18.7803 32.3306 19.3388 31.4417 21.1437 31.4417C22.9319 31.4417 23.4558 32.3925 25.0149 32.3566C26.6194 32.3306 27.6303 30.9255 28.5944 29.4873C29.3124 28.4721 29.8648 27.3501 30.2313 26.1628C29.2992 25.7697 28.5037 25.1116 27.944 24.2706C27.3844 23.4296 27.0854 22.443 27.0843 21.4337Z" fill="white"/>
<path d="M24.1395 12.7372C25.0143 11.6899 25.4453 10.3438 25.341 8.98474C24.0044 9.12473 22.7698 9.76173 21.8831 10.7688C21.4496 11.2608 21.1176 11.8332 20.906 12.4532C20.6945 13.0732 20.6075 13.7288 20.6502 14.3823C21.3187 14.3892 21.9801 14.2447 22.5845 13.9597C23.1889 13.6747 23.7206 13.2567 24.1395 12.7372Z" fill="white"/>
<path d="M45.9857 28.7855H40.883L39.6576 32.3937H37.4963L42.3295 19.0443H44.575L49.4082 32.3937H47.2101L45.9857 28.7855ZM41.4115 27.1205H45.4562L43.4623 21.2647H43.4065L41.4115 27.1205Z" fill="white"/>
<path d="M59.8463 27.5279C59.8463 30.5524 58.223 32.4956 55.7732 32.4956C55.1526 32.5279 54.5355 32.3854 53.9924 32.0842C53.4493 31.7831 53.0022 31.3355 52.7023 30.7928H52.656V35.6135H50.6526V22.661H52.5918V24.2798H52.6286C52.9423 23.7397 53.3969 23.2944 53.9442 22.9914C54.4914 22.6884 55.1108 22.539 55.7364 22.5592C58.2134 22.5592 59.8463 24.5118 59.8463 27.5279ZM57.7871 27.5279C57.7871 25.5574 56.7659 24.262 55.2079 24.262C53.6772 24.262 52.6476 25.5847 52.6476 27.5279C52.6476 29.4889 53.6772 30.8022 55.2079 30.8022C56.766 30.8022 57.7871 29.5162 57.7871 27.5279Z" fill="white"/>
<path d="M70.5885 27.5279C70.5885 30.5524 68.9651 32.4956 66.5154 32.4956C65.8948 32.5279 65.2777 32.3854 64.7346 32.0842C64.1915 31.7831 63.7444 31.3355 63.4445 30.7928H63.3982V35.6135H61.3948V22.661H63.3339V24.2798H63.3708C63.6844 23.7396 64.1391 23.2944 64.6863 22.9914C65.2335 22.6884 65.8529 22.539 66.4785 22.5592C68.9557 22.5592 70.5885 24.5118 70.5885 27.5279ZM68.5293 27.5279C68.5293 25.5574 67.5081 24.2619 65.9501 24.2619C64.4194 24.2619 63.3898 25.5847 63.3898 27.5279C63.3898 29.4889 64.4194 30.8022 65.9501 30.8022C67.5081 30.8022 68.5293 29.5162 68.5293 27.5279H68.5293Z" fill="white"/>
<path d="M77.6882 28.6742C77.8367 29.9981 79.1263 30.8672 80.8886 30.8672C82.5772 30.8672 83.7921 29.998 83.7921 28.8044C83.7921 27.7682 83.0594 27.1478 81.3244 26.7226L79.5895 26.3058C77.1314 25.7138 75.9902 24.5674 75.9902 22.7071C75.9902 20.4038 78.003 18.8218 80.8612 18.8218C83.69 18.8218 85.6291 20.4038 85.6944 22.7071H83.6721C83.551 21.3749 82.4467 20.5708 80.8328 20.5708C79.2189 20.5708 78.1146 21.3844 78.1146 22.5685C78.1146 23.5123 78.8199 24.0677 80.5454 24.4928L82.0203 24.8539C84.7669 25.5017 85.9081 26.6019 85.9081 28.5545C85.9081 31.052 83.9131 32.6162 80.7401 32.6162C77.7714 32.6162 75.7669 31.0887 75.6375 28.6742L77.6882 28.6742Z" fill="white"/>
<path d="M90.2318 20.3577V22.6609H92.0878V24.243H90.2318V29.6085C90.2318 30.4421 90.6034 30.8305 91.4193 30.8305C91.6396 30.8267 91.8596 30.8113 92.0783 30.7843V32.3569C91.7115 32.4252 91.3386 32.4562 90.9655 32.4493C88.9895 32.4493 88.2189 31.7092 88.2189 29.8216V24.243H86.7998V22.6609H88.2189V20.3577H90.2318Z" fill="white"/>
<path d="M93.1628 27.5278C93.1628 24.4656 94.9715 22.5413 97.7918 22.5413C100.622 22.5413 102.422 24.4655 102.422 27.5278C102.422 30.5985 100.631 32.5144 97.7918 32.5144C94.9535 32.5144 93.1628 30.5985 93.1628 27.5278ZM100.38 27.5278C100.38 25.4272 99.4151 24.1874 97.7918 24.1874C96.1684 24.1874 95.2041 25.4366 95.2041 27.5278C95.2041 29.6369 96.1684 30.8673 97.7918 30.8673C99.4151 30.8673 100.38 29.6369 100.38 27.5278H100.38Z" fill="white"/>
<path d="M104.073 22.6609H105.984V24.3175H106.031C106.16 23.8001 106.464 23.3429 106.891 23.0226C107.319 22.7024 107.844 22.5387 108.378 22.5591C108.609 22.5583 108.839 22.5833 109.065 22.6336V24.5023C108.773 24.4134 108.469 24.3727 108.164 24.3815C107.873 24.3698 107.583 24.4209 107.314 24.5315C107.045 24.6421 106.802 24.8096 106.604 25.0223C106.406 25.235 106.256 25.488 106.165 25.7639C106.074 26.0399 106.044 26.3322 106.077 26.6208V32.3936H104.073L104.073 22.6609Z" fill="white"/>
<path d="M118.301 29.5351C118.032 31.3019 116.306 32.5144 114.099 32.5144C111.259 32.5144 109.497 30.6174 109.497 27.574C109.497 24.5212 111.269 22.5413 114.014 22.5413C116.715 22.5413 118.413 24.391 118.413 27.342V28.0265H111.519V28.1472C111.488 28.5054 111.533 28.8662 111.651 29.2058C111.77 29.5453 111.96 29.8557 112.208 30.1165C112.457 30.3772 112.758 30.5823 113.092 30.7181C113.426 30.8538 113.785 30.9172 114.145 30.904C114.618 30.9482 115.093 30.8389 115.5 30.5922C115.906 30.3456 116.221 29.9748 116.399 29.535L118.301 29.5351ZM111.529 26.6302H116.408C116.426 26.3082 116.377 25.9859 116.265 25.6836C116.152 25.3813 115.977 25.1055 115.753 24.8736C115.528 24.6416 115.257 24.4585 114.958 24.3357C114.659 24.2129 114.338 24.1531 114.014 24.1601C113.688 24.1581 113.365 24.2206 113.063 24.344C112.761 24.4673 112.487 24.6491 112.256 24.8787C112.024 25.1084 111.841 25.3814 111.717 25.682C111.592 25.9826 111.528 26.3049 111.529 26.6303V26.6302Z" fill="white"/>
<path d="M37.3936 12.9199V6.01619H38.2396V12.0914H41.3969V12.9199H37.3936Z" fill="white" fill-opacity="0.8"/>
<path d="M46.0649 7.98867H46.9109V12.9199H46.0649L46.0297 12.0865C45.8719 12.3725 45.6537 12.6043 45.375 12.7818C45.0997 12.9593 44.7707 13.0481 44.388 13.0481C44.0187 13.0481 43.6729 12.9807 43.3507 12.8459C43.0284 12.7078 42.743 12.5188 42.4946 12.2788C42.2495 12.0355 42.0582 11.7561 41.9205 11.4405C41.7829 11.1249 41.714 10.7847 41.714 10.4197C41.714 10.068 41.7812 9.73595 41.9155 9.42364C42.0498 9.11134 42.2361 8.83848 42.4744 8.60507C42.7162 8.36837 42.9948 8.18427 43.3104 8.05277C43.6259 7.91799 43.965 7.85059 44.3276 7.85059C44.7237 7.85059 45.0712 7.94264 45.37 8.12674C45.6688 8.30755 45.9105 8.5426 46.0951 8.8319L46.0649 7.98867ZM44.3729 12.2443C44.7053 12.2443 44.9923 12.1654 45.234 12.0076C45.4791 11.8465 45.6671 11.6295 45.798 11.3567C45.9323 11.0838 45.9994 10.783 45.9994 10.4543C45.9994 10.1189 45.9323 9.8165 45.798 9.54692C45.6637 9.27407 45.474 9.05874 45.229 8.90094C44.9873 8.73985 44.7019 8.65931 44.3729 8.65931C44.0405 8.65931 43.7384 8.73985 43.4665 8.90094C43.1945 9.06202 42.978 9.279 42.8169 9.55186C42.6591 9.82143 42.5802 10.1222 42.5802 10.4543C42.5802 10.7863 42.6624 11.0887 42.8269 11.3616C42.9914 11.6312 43.2097 11.8465 43.4816 12.0076C43.7535 12.1654 44.0506 12.2443 44.3729 12.2443Z" fill="white" fill-opacity="0.8"/>
<path d="M51.8728 5.52307H52.7188V12.9199H51.8728V12.0816C51.7016 12.3709 51.4716 12.6043 51.1829 12.7818C50.8942 12.9593 50.5551 13.0481 50.1657 13.0481C49.7998 13.0481 49.4573 12.9807 49.1384 12.8459C48.8195 12.7111 48.5375 12.5254 48.2924 12.2887C48.0507 12.0487 47.861 11.7725 47.7234 11.4602C47.5857 11.1479 47.5169 10.8126 47.5169 10.4543C47.5169 10.0959 47.5857 9.76061 47.7234 9.4483C47.861 9.1327 48.0507 8.85656 48.2924 8.61986C48.5375 8.37988 48.8195 8.19249 49.1384 8.0577C49.4573 7.92292 49.7998 7.85553 50.1657 7.85553C50.5551 7.85553 50.8942 7.94429 51.1829 8.12181C51.4716 8.29933 51.7016 8.53274 51.8728 8.82204V5.52307ZM50.1758 12.2443C50.5081 12.2443 50.7952 12.1654 51.0369 12.0076C51.282 11.8465 51.47 11.6295 51.6009 11.3567C51.7352 11.0838 51.8023 10.783 51.8023 10.4543C51.8023 10.1189 51.7352 9.8165 51.6009 9.54692C51.4666 9.27407 51.2769 9.05874 51.0319 8.90094C50.7901 8.73985 50.5048 8.65931 50.1758 8.65931C49.8434 8.65931 49.5413 8.73985 49.2694 8.90094C49.0008 9.06202 48.7859 9.279 48.6248 9.55186C48.4636 9.82143 48.3831 10.1222 48.3831 10.4543C48.3831 10.7863 48.4653 11.0887 48.6298 11.3616C48.7943 11.6312 49.0125 11.8465 49.2845 12.0076C49.5564 12.1654 49.8535 12.2443 50.1758 12.2443Z" fill="white" fill-opacity="0.8"/>
<path d="M56.0934 13.0481C55.6301 13.0481 55.2071 12.9314 54.8244 12.698C54.445 12.4645 54.1412 12.1522 53.9129 11.761C53.688 11.3665 53.5755 10.9309 53.5755 10.4543C53.5755 10.0926 53.641 9.75568 53.7719 9.44337C53.9028 9.12777 54.0824 8.85163 54.3107 8.61493C54.5424 8.37494 54.8109 8.18756 55.1164 8.05277C55.4219 7.91799 55.7476 7.85059 56.0934 7.85059C56.4727 7.85059 56.8202 7.92621 57.1358 8.07743C57.4547 8.22536 57.7266 8.43248 57.9516 8.69876C58.1798 8.96504 58.3494 9.27407 58.4602 9.62582C58.5743 9.97758 58.6163 10.354 58.5861 10.7551H54.4769C54.5172 11.0345 54.6112 11.2843 54.7589 11.5046C54.9066 11.7216 55.0946 11.8942 55.3229 12.0224C55.5546 12.1506 55.8114 12.2163 56.0934 12.2196C56.3955 12.2196 56.6691 12.144 56.9142 11.9928C57.1593 11.8383 57.3573 11.6279 57.5084 11.3616L58.3695 11.5589C58.1681 11.9961 57.8643 12.3544 57.4581 12.6339C57.0518 12.91 56.5969 13.0481 56.0934 13.0481ZM54.4517 10.1041H57.735C57.7082 9.828 57.6175 9.57651 57.4631 9.34968C57.3087 9.11955 57.1123 8.93546 56.8739 8.79738C56.6356 8.65931 56.3754 8.59027 56.0934 8.59027C55.8114 8.59027 55.5529 8.65767 55.3179 8.79245C55.0829 8.92724 54.8882 9.10969 54.7337 9.33981C54.5827 9.56665 54.4887 9.82143 54.4517 10.1041Z" fill="white" fill-opacity="0.8"/>
<path d="M63.8862 9.85266V12.9199H63.0402V10.0351C63.0402 9.78527 62.9781 9.55843 62.8539 9.35461C62.7297 9.15079 62.5635 8.9897 62.3554 8.87135C62.1472 8.74972 61.9156 8.6889 61.6604 8.6889C61.4087 8.6889 61.177 8.74972 60.9655 8.87135C60.7574 8.9897 60.5912 9.15079 60.467 9.35461C60.3428 9.55843 60.2807 9.78527 60.2807 10.0351V12.9199H59.4347V7.98867H60.2807V8.60507C60.4586 8.37494 60.6835 8.19249 60.9554 8.0577C61.2274 7.91963 61.5228 7.85059 61.8417 7.85059C62.2177 7.85059 62.5602 7.941 62.869 8.12181C63.1812 8.29933 63.428 8.53932 63.6093 8.84176C63.7939 9.14421 63.8862 9.48118 63.8862 9.85266Z" fill="white" fill-opacity="0.8"/>
<path d="M67.3128 7.98867H68.1588V12.9199H67.3128V7.98867ZM67.7459 7.18488C67.6116 7.18488 67.4991 7.14215 67.4085 7.05667C67.3178 6.9712 67.2725 6.86436 67.2725 6.73614C67.2725 6.60793 67.3178 6.50109 67.4085 6.41562C67.4991 6.33014 67.6099 6.28741 67.7408 6.28741C67.8718 6.28741 67.9825 6.33014 68.0732 6.41562C68.1638 6.50109 68.2092 6.60793 68.2092 6.73614C68.2092 6.86436 68.1638 6.9712 68.0732 7.05667C67.9859 7.14215 67.8768 7.18488 67.7459 7.18488Z" fill="white" fill-opacity="0.8"/>
<path d="M69.3389 12.9199V7.98867H70.1849V8.60507C70.3628 8.37494 70.5861 8.19249 70.8546 8.0577C71.1266 7.91963 71.422 7.85059 71.7409 7.85059C72.1136 7.85059 72.4543 7.93936 72.7632 8.11688C73.072 8.2944 73.3154 8.52946 73.4934 8.82204C73.6713 8.52946 73.913 8.2944 74.2185 8.11688C74.5274 7.93936 74.8664 7.85059 75.2357 7.85059C75.6151 7.85059 75.9592 7.941 76.268 8.12181C76.5769 8.29933 76.822 8.53932 77.0032 8.84176C77.1879 9.14421 77.2802 9.48118 77.2802 9.85266V12.9199H76.4342V10.0499C76.4342 9.80663 76.3738 9.58144 76.2529 9.37433C76.1321 9.16722 75.9692 9.00121 75.7645 8.87628C75.5597 8.75136 75.3331 8.6889 75.0846 8.6889C74.8362 8.6889 74.6096 8.74807 74.4048 8.86642C74.2 8.98148 74.0372 9.14257 73.9164 9.34968C73.7955 9.5535 73.7351 9.78691 73.7351 10.0499V12.9199H72.8891V10.0499C72.8891 9.78691 72.8286 9.5535 72.7078 9.34968C72.5869 9.14257 72.4224 8.98148 72.2143 8.86642C72.0095 8.74807 71.7829 8.6889 71.5345 8.6889C71.2894 8.6889 71.0628 8.75136 70.8546 8.87628C70.6498 9.00121 70.487 9.16722 70.3662 9.37433C70.2453 9.58144 70.1849 9.80663 70.1849 10.0499V12.9199H69.3389Z" fill="white" fill-opacity="0.8"/>
</g>
<defs>
<clipPath id="clip0_81_2427">
<rect width="130" height="43" fill="white"/>
</clipPath>
</defs>
</svg>
