<svg width="115" height="25" viewBox="0 0 115 25" fill="none" xmlns="http://www.w3.org/2000/svg">
<path d="M16.6733 13.0485C16.6855 12.108 16.9353 11.1859 17.3995 10.3679C17.8638 9.54989 18.5274 8.86262 19.3287 8.37002C18.8197 7.64307 18.1482 7.04481 17.3675 6.62277C16.5868 6.20073 15.7185 5.96654 14.8315 5.93879C12.9394 5.74018 11.105 7.07101 10.1408 7.07101C9.15797 7.07101 7.67343 5.9585 6.07483 5.9914C5.04081 6.0248 4.03308 6.32549 3.14982 6.86416C2.26656 7.40282 1.5379 8.1611 1.03483 9.06511C-1.14437 12.838 0.481116 18.383 2.5686 21.4328C3.61302 22.9261 4.83364 24.5943 6.4308 24.5351C7.99371 24.4703 8.57743 23.5385 10.464 23.5385C12.3331 23.5385 12.8807 24.5351 14.5103 24.4975C16.1874 24.4703 17.244 22.9975 18.2518 21.49C19.0022 20.4259 19.5796 19.2498 19.9627 18.0054C18.9884 17.5933 18.1569 16.9035 17.5719 16.022C16.987 15.1406 16.6745 14.1064 16.6733 13.0485Z" fill="#141010"/>
<path d="M13.5957 3.93317C14.5101 2.83545 14.9606 1.42451 14.8515 0C13.4545 0.14673 12.164 0.814415 11.2372 1.87002C10.7841 2.38571 10.4371 2.98565 10.2159 3.63554C9.99482 4.28544 9.90395 4.97254 9.94853 5.65757C10.6473 5.66477 11.3386 5.51331 11.9703 5.21462C12.6021 4.91592 13.1578 4.47777 13.5957 3.93317Z" fill="#141010"/>
<path d="M39.2967 17.2043H33.9632L32.6824 20.9863H30.4233L35.4752 6.9939H37.8222L42.8741 20.9863H40.5765L39.2967 17.2043ZM34.5156 15.4591H38.7433L36.6592 9.32121H36.6009L34.5156 15.4591Z" fill="#141010"/>
<path d="M53.7839 15.8861C53.7839 19.0563 52.0871 21.0931 49.5266 21.0931C48.8779 21.127 48.2328 20.9776 47.6652 20.6619C47.0975 20.3463 46.6302 19.8771 46.3168 19.3082H46.2683V24.3612H44.1743V10.7848H46.2012V12.4815H46.2398C46.5676 11.9154 47.0428 11.4487 47.6148 11.1311C48.1868 10.8135 48.8342 10.6569 49.4881 10.678C52.0772 10.678 53.7839 12.7247 53.7839 15.8861ZM51.6316 15.8861C51.6316 13.8207 50.5642 12.4628 48.9357 12.4628C47.3357 12.4628 46.2595 13.8493 46.2595 15.8861C46.2595 17.9416 47.3357 19.3182 48.9357 19.3182C50.5642 19.3182 51.6316 17.9702 51.6316 15.8861Z" fill="#141010"/>
<path d="M65.0124 15.8861C65.0124 19.0563 63.3156 21.0931 60.7551 21.0931C60.1064 21.127 59.4614 20.9776 58.8937 20.6619C58.326 20.3463 57.8587 19.8771 57.5453 19.3082H57.4968V24.3612H55.4028V10.7848H57.4297V12.4815H57.4682C57.7961 11.9154 58.2713 11.4487 58.8433 11.1311C59.4152 10.8135 60.0626 10.6569 60.7165 10.678C63.3057 10.678 65.0124 12.7247 65.0124 15.8861ZM62.8601 15.8861C62.8601 13.8207 61.7927 12.4628 60.1642 12.4628C58.5642 12.4628 57.4881 13.8493 57.4881 15.8861C57.4881 17.9416 58.5642 19.3182 60.1642 19.3182C61.7927 19.3182 62.8601 17.9702 62.8601 15.8861H62.8601Z" fill="#141010"/>
<path d="M72.4331 17.0877C72.5883 18.4753 73.9362 19.3863 75.7782 19.3863C77.5432 19.3863 78.8131 18.4752 78.8131 17.2241C78.8131 16.138 78.0472 15.4877 76.2338 15.042L74.4204 14.6052C71.851 13.9846 70.6582 12.783 70.6582 10.8331C70.6582 8.41888 72.7621 6.76062 75.7496 6.76062C78.7063 6.76062 80.7332 8.41888 80.8014 10.8331H78.6876C78.5611 9.43673 77.4068 8.59385 75.7199 8.59385C74.033 8.59385 72.8787 9.44664 72.8787 10.6879C72.8787 11.6771 73.616 12.2592 75.4195 12.7048L76.9611 13.0833C79.832 13.7623 81.0248 14.9155 81.0248 16.9621C81.0248 19.5799 78.9396 21.2195 75.6231 21.2195C72.52 21.2195 70.4249 19.6184 70.2896 17.0876L72.4331 17.0877Z" fill="#141010"/>
<path d="M85.5442 8.37048V10.7847H87.4842V12.443H85.5442V18.067C85.5442 18.9407 85.9327 19.3478 86.7855 19.3478C87.0158 19.3438 87.2457 19.3276 87.4743 19.2994V20.9477C87.0909 21.0194 86.7012 21.0518 86.3112 21.0445C84.2458 21.0445 83.4403 20.2688 83.4403 18.2903V12.443H81.957V10.7847H83.4403V8.37048H85.5442Z" fill="#141010"/>
<path d="M88.6074 15.8861C88.6074 12.6763 90.4979 10.6593 93.4458 10.6593C96.4036 10.6593 98.2852 12.6762 98.2852 15.8861C98.2852 19.1047 96.4135 21.1128 93.4458 21.1128C90.4791 21.1128 88.6074 19.1047 88.6074 15.8861ZM96.1516 15.8861C96.1516 13.6842 95.1425 12.3847 93.4458 12.3847C91.749 12.3847 90.741 13.6941 90.741 15.8861C90.741 18.0967 91.749 19.3864 93.4458 19.3864C95.1425 19.3864 96.1515 18.0967 96.1515 15.8861H96.1516Z" fill="#141010"/>
<path d="M100.012 10.7847H102.009V12.521H102.057C102.192 11.9787 102.51 11.4995 102.957 11.1638C103.404 10.8282 103.953 10.6566 104.511 10.6779C104.753 10.6771 104.993 10.7033 105.229 10.7561V12.7147C104.924 12.6216 104.606 12.5789 104.288 12.5882C103.984 12.5758 103.68 12.6295 103.399 12.7454C103.117 12.8613 102.864 13.0368 102.657 13.2598C102.45 13.4828 102.293 13.748 102.198 14.0372C102.103 14.3264 102.071 14.6328 102.106 14.9353V20.9862H100.012L100.012 10.7847Z" fill="#141010"/>
<path d="M114.884 17.99C114.602 19.8419 112.798 21.1128 110.491 21.1128C107.523 21.1128 105.681 19.1245 105.681 15.9345C105.681 12.7346 107.533 10.6593 110.403 10.6593C113.225 10.6593 115 12.5982 115 15.6913V16.4088H107.795V16.5353C107.762 16.9107 107.809 17.289 107.933 17.6448C108.057 18.0007 108.255 18.3261 108.515 18.5994C108.775 18.8727 109.089 19.0877 109.438 19.23C109.787 19.3723 110.163 19.4387 110.539 19.4249C111.034 19.4712 111.531 19.3566 111.955 19.0981C112.38 18.8396 112.709 18.4509 112.895 17.99L114.884 17.99ZM107.805 14.9453H112.905C112.924 14.6077 112.873 14.2699 112.755 13.953C112.637 13.6361 112.455 13.3471 112.22 13.1039C111.985 12.8608 111.702 12.6689 111.389 12.5402C111.077 12.4115 110.741 12.3488 110.403 12.3561C110.062 12.354 109.724 12.4196 109.408 12.5488C109.093 12.6781 108.806 12.8686 108.564 13.1094C108.323 13.3501 108.131 13.6362 108.001 13.9514C107.871 14.2665 107.804 14.6043 107.805 14.9453V14.9453Z" fill="#141010"/>
</svg>
