<svg width="146" height="44" viewBox="0 0 146 44" fill="none" xmlns="http://www.w3.org/2000/svg">
<g clip-path="url(#clip0_81_2412)">
<path fill-rule="evenodd" clip-rule="evenodd" d="M139.517 43.6105H5.26126C2.30034 43.6105 -0.111084 41.187 -0.111084 38.2355V5.98547C-0.111084 3.02319 2.30034 0.610474 5.26126 0.610474H139.517C142.475 0.610474 144.889 3.02319 144.889 5.98547V38.2355C144.889 41.187 142.475 43.6105 139.517 43.6105Z" fill="black"/>
<path fill-rule="evenodd" clip-rule="evenodd" d="M139.517 1.47101C142 1.47101 144.033 3.50037 144.033 5.98547V38.2355C144.033 40.7206 142.013 42.7499 139.517 42.7499H5.26126C2.77782 42.7499 0.745184 40.7206 0.745184 38.2355V5.98547C0.745184 3.50037 2.76448 1.47101 5.26126 1.47101H139.517ZM139.517 0.610474H5.26126C2.30034 0.610474 -0.111084 3.03392 -0.111084 5.98547V38.2355C-0.111084 41.1978 2.30034 43.6105 5.26126 43.6105H139.517C142.475 43.6105 144.889 41.1978 144.889 38.2355V5.98547C144.889 3.03392 142.475 0.610474 139.517 0.610474Z" fill="#A6A6A6"/>
<path fill-rule="evenodd" clip-rule="evenodd" d="M72.7675 23.9978C70.2468 23.9978 68.2034 25.92 68.2034 28.5713C68.2034 31.1985 70.2601 33.1447 72.7675 33.1447C75.2883 33.1447 77.3316 31.2092 77.3316 28.5713C77.3316 25.92 75.2883 23.9978 72.7675 23.9978ZM72.7675 31.3325C71.3884 31.3325 70.2014 30.1851 70.2014 28.5606C70.2014 26.9119 71.3911 25.7886 72.7675 25.7886C74.1466 25.7886 75.3337 26.9119 75.3337 28.5606C75.3364 30.1958 74.1466 31.3325 72.7675 31.3325ZM62.8098 23.9978C60.289 23.9978 58.2457 25.92 58.2457 28.5713C58.2457 31.1985 60.3023 33.1447 62.8098 33.1447C65.3305 33.1447 67.3738 31.2092 67.3738 28.5713C67.3738 25.92 65.3279 23.9978 62.8098 23.9978ZM62.8098 31.3325C61.4307 31.3325 60.2436 30.1851 60.2436 28.5606C60.2436 26.9119 61.4333 25.7886 62.8098 25.7886C64.1889 25.7886 65.3759 26.9119 65.3759 28.5606C65.3759 30.1958 64.1889 31.3325 62.8098 31.3325ZM50.9607 25.3945V27.3301H55.5835C55.4421 28.4158 55.0847 29.2174 54.5378 29.7669C53.8603 30.4478 52.8146 31.1877 50.9714 31.1877C48.1305 31.1877 45.9084 28.8823 45.9084 26.0272C45.9084 23.1722 48.1305 20.8667 50.9714 20.8667C52.5052 20.8667 53.6229 21.4752 54.4525 22.2526L55.8182 20.8801C54.6659 19.7702 53.132 18.9204 50.982 18.9204C47.0848 18.9204 43.8145 22.1106 43.8145 26.0165C43.8145 29.9331 47.0821 33.1126 50.982 33.1126C53.0867 33.1126 54.6659 32.4209 55.9143 31.118C57.1867 29.8393 57.5894 28.0351 57.5894 26.5794C57.5894 26.1264 57.5548 25.7189 57.4827 25.3731H50.958C50.9607 25.3704 50.9607 25.3945 50.9607 25.3945ZM99.4266 26.9011C99.0451 25.8744 97.8928 23.9871 95.5294 23.9871C93.1873 23.9871 91.24 25.8395 91.24 28.5606C91.24 31.1288 93.1659 33.134 95.7561 33.134C97.8367 33.134 99.0478 31.8553 99.5466 31.1046L98.0021 30.0645C97.49 30.8285 96.7778 31.3298 95.7668 31.3298C94.7451 31.3298 94.0302 30.8634 93.5554 29.9438L99.64 27.4105C99.64 27.4132 99.4266 26.9011 99.4266 26.9011ZM93.222 28.4292C93.174 26.6626 94.5877 25.7645 95.5987 25.7645C96.3963 25.7645 97.0605 26.1586 97.2872 26.7323L93.222 28.4292ZM88.2791 32.8606H90.277V19.4244H88.2791V32.8606ZM84.9981 25.0139H84.926C84.4752 24.475 83.6189 23.9871 82.5253 23.9871C80.2552 23.9871 78.1639 25.995 78.1639 28.574C78.1639 31.1422 80.2446 33.126 82.5253 33.126C83.6056 33.126 84.4752 32.6354 84.926 32.0858H84.9981V32.7426C84.9981 34.4878 84.0698 35.4288 82.5733 35.4288C81.3489 35.4288 80.5887 34.5441 80.2792 33.8042L78.5427 34.5334C79.0415 35.7397 80.3726 37.2329 82.5706 37.2329C84.9127 37.2329 86.8973 35.847 86.8973 32.4665V24.2606H85.0087V25.0139C85.0114 25.0139 84.9981 25.0139 84.9981 25.0139ZM82.704 31.3325C81.3249 31.3325 80.1725 30.1744 80.1725 28.574C80.1725 26.9601 81.3249 25.7913 82.704 25.7913C84.0698 25.7913 85.1288 26.9735 85.1288 28.574C85.1421 30.1744 84.0724 31.3325 82.704 31.3325ZM108.782 19.4244H104.004V32.8606H106.002V27.7724H108.784C110.996 27.7724 113.17 26.1612 113.17 23.6038C113.17 21.0463 111.004 19.4244 108.782 19.4244ZM108.84 25.8958H105.999V21.2849H108.84C110.337 21.2849 111.182 22.5261 111.182 23.5904C111.182 24.6439 110.326 25.8958 108.84 25.8958ZM121.177 23.9737C119.726 23.9737 118.23 24.6198 117.611 26.0272L119.382 26.7671C119.764 26.0272 120.463 25.7752 121.201 25.7752C122.236 25.7752 123.282 26.3972 123.306 27.507V27.6491C122.949 27.4453 122.164 27.1344 121.225 27.1344C119.313 27.1344 117.374 28.1852 117.374 30.1556C117.374 31.9598 118.942 33.1179 120.689 33.1179C122.031 33.1179 122.77 32.5094 123.231 31.8043H123.303V32.8445H125.229V27.6973C125.229 25.3007 123.458 23.9737 121.177 23.9737ZM120.927 31.3325C120.273 31.3325 119.358 31.0108 119.358 30.1851C119.358 29.145 120.5 28.7509 121.474 28.7509C122.354 28.7509 122.77 28.9412 123.293 29.2039C123.149 30.4103 122.135 31.3218 120.927 31.3325ZM132.256 24.2606L129.962 30.0886H129.889L127.513 24.2606H125.363L128.929 32.4075L126.897 36.9354H128.977L134.464 24.2606H132.256ZM114.271 32.8606H116.269V19.4244H114.271V32.8606Z" fill="white"/>
<path fill-rule="evenodd" clip-rule="evenodd" d="M11.0499 8.70922C10.7405 9.04432 10.5618 9.55635 10.5618 10.2266V33.9972C10.5618 34.6674 10.7405 35.1794 11.0606 35.5011L11.1433 35.5735L24.3954 22.2553V21.9577L11.1326 8.63684L11.0499 8.70922Z" fill="url(#paint0_linear_81_2412)"/>
<path fill-rule="evenodd" clip-rule="evenodd" d="M28.8044 26.7081L24.3843 22.266V21.955L28.8044 17.5129L28.9004 17.5719L34.1287 20.5583C35.6252 21.4055 35.6252 22.8048 34.1287 23.6627L28.9004 26.6491L28.8044 26.7081Z" fill="url(#paint1_linear_81_2412)"/>
<path fill-rule="evenodd" clip-rule="evenodd" d="M28.9007 26.6491L24.3846 22.1105L11.0498 35.5118C11.538 36.0372 12.3569 36.0962 13.2718 35.5842L28.9007 26.6491Z" fill="url(#paint2_linear_81_2412)"/>
<path fill-rule="evenodd" clip-rule="evenodd" d="M28.9007 17.572L13.2718 8.65028C12.3569 8.12484 11.5353 8.19722 11.0498 8.72266L24.3846 22.1106L28.9007 17.572Z" fill="url(#paint3_linear_81_2412)"/>
<path opacity="0.2" fill-rule="evenodd" clip-rule="evenodd" d="M28.8046 26.5526L13.2823 35.4153C12.4154 35.9166 11.6418 35.8818 11.143 35.426L11.0603 35.5091L11.143 35.5815C11.6418 36.0346 12.4154 36.0721 13.2823 35.5708L28.9113 26.6491L28.8046 26.5526Z" fill="black"/>
<path opacity="0.12" fill-rule="evenodd" clip-rule="evenodd" d="M34.1289 23.5072L28.7913 26.5526L28.8873 26.6491L34.1156 23.6627C34.8652 23.2337 35.2333 22.6708 35.2333 22.1105C35.1879 22.6252 34.8065 23.1131 34.1289 23.5072Z" fill="black"/>
<path opacity="0.25" fill-rule="evenodd" clip-rule="evenodd" d="M13.2719 8.80569L34.1291 20.7138C34.8067 21.0971 35.1881 21.5985 35.2468 22.1105C35.2468 21.5502 34.8787 20.9872 34.1291 20.5583L13.2719 8.6502C11.7755 7.78966 10.5618 8.50812 10.5618 10.2265V10.382C10.5618 8.66092 11.7755 7.95587 13.2719 8.80569Z" fill="white"/>
<path d="M45.0825 15.123C44.809 15.123 44.5408 15.0838 44.278 15.0054C44.0187 14.927 43.7825 14.8109 43.5693 14.6571L44.4005 13.8067C44.4787 13.861 44.5746 13.9108 44.6883 13.956C44.8019 13.9982 44.9334 14.0193 45.0825 14.0193C45.2779 14.0193 45.4555 13.9771 45.6154 13.8927C45.7752 13.8052 45.9031 13.6922 45.999 13.5534C46.0985 13.4117 46.1482 13.2579 46.1482 13.0921V8.67297H47.4483V13.0921C47.4483 13.463 47.3417 13.8022 47.1286 14.1098C46.9155 14.4143 46.6295 14.6601 46.2707 14.8471C45.912 15.031 45.5159 15.123 45.0825 15.123Z" fill="white" fill-opacity="0.8"/>
<path d="M48.7306 15.0054V8.67297H53.4088V9.77662H50.0307V11.0612H52.7108V12.1648H50.0307V13.9017H53.4088V15.0054H48.7306Z" fill="white" fill-opacity="0.8"/>
<path d="M60.2271 8.67297V9.77662H57.9466V15.0054H56.6465V9.77662H54.366V8.67297H60.2271Z" fill="white" fill-opacity="0.8"/>
<path d="M61.0783 15.0054V13.9017L65.3569 9.77662H61.0783V8.67297H67.1099V9.77662L62.8313 13.9017H67.1099V15.0054H61.0783Z" fill="white" fill-opacity="0.8"/>
<path d="M73.8182 8.67297V9.77662H71.5377V15.0054H70.2376V9.77662H67.9572V8.67297H73.8182Z" fill="white" fill-opacity="0.8"/>
<path d="M77.4426 15.0054V8.67297H80.16C80.5543 8.67297 80.9095 8.74233 81.2257 8.88104C81.5453 9.01673 81.7976 9.21274 81.9823 9.46905C82.1705 9.72234 82.2647 10.0224 82.2647 10.3692C82.2647 10.5229 82.238 10.6782 82.1847 10.835C82.1315 10.9918 82.0497 11.1336 81.9396 11.2602C81.8295 11.3838 81.6874 11.4758 81.5134 11.5361C81.7443 11.5844 81.9325 11.6718 82.0782 11.7985C82.2238 11.9251 82.3375 12.0744 82.4192 12.2463C82.5009 12.4151 82.5559 12.5885 82.5843 12.7664C82.6163 12.9413 82.6323 13.1041 82.6323 13.2549C82.6323 13.5896 82.5346 13.8882 82.3392 14.1505C82.1439 14.4128 81.881 14.6209 81.5507 14.7747C81.2239 14.9285 80.8616 15.0054 80.4637 15.0054H77.4426ZM78.7427 14.06H80.3305C80.5436 14.06 80.7355 14.0163 80.906 13.9289C81.0765 13.8414 81.2132 13.7208 81.3162 13.567C81.4192 13.4132 81.4708 13.2383 81.4708 13.0423C81.4708 12.8735 81.4192 12.7136 81.3162 12.5629C81.2132 12.4121 81.0765 12.29 80.906 12.1965C80.7355 12.103 80.5436 12.0563 80.3305 12.0563H78.7427V14.06ZM78.7427 11.1245H80.0108C80.2737 11.1245 80.4975 11.0552 80.6822 10.9165C80.8704 10.7777 80.9646 10.5938 80.9646 10.3646C80.9646 10.1204 80.8704 9.93644 80.6822 9.81281C80.4975 9.68616 80.2737 9.62283 80.0108 9.62283H78.7427V11.1245Z" fill="white" fill-opacity="0.8"/>
<path d="M83.4889 15.0054V8.67297H88.1671V9.77662H84.789V11.0612H87.4691V12.1648H84.789V13.9017H88.1671V15.0054H83.4889Z" fill="white" fill-opacity="0.8"/>
<path d="M89.5285 15.0054V8.67297H90.8286V15.0054H89.5285Z" fill="white" fill-opacity="0.8"/>
</g>
<defs>
<linearGradient id="paint0_linear_81_2412" x1="23.2067" y1="9.97009" x2="1.96515" y2="15.6019" gradientUnits="userSpaceOnUse">
<stop stop-color="#00A0FF"/>
<stop offset="0.00657" stop-color="#00A1FF"/>
<stop offset="0.2601" stop-color="#00BEFF"/>
<stop offset="0.5122" stop-color="#00D2FF"/>
<stop offset="0.7604" stop-color="#00DFFF"/>
<stop offset="1" stop-color="#00E3FF"/>
</linearGradient>
<linearGradient id="paint1_linear_81_2412" x1="36.0803" y1="22.1105" x2="10.1975" y2="22.1105" gradientUnits="userSpaceOnUse">
<stop stop-color="#FFE000"/>
<stop offset="0.4087" stop-color="#FFBD00"/>
<stop offset="0.7754" stop-color="#FFA500"/>
<stop offset="1" stop-color="#FF9C00"/>
</linearGradient>
<linearGradient id="paint2_linear_81_2412" x1="26.4451" y1="24.5801" x2="9.27805" y2="53.3303" gradientUnits="userSpaceOnUse">
<stop stop-color="#FF3A44"/>
<stop offset="1" stop-color="#C31162"/>
</linearGradient>
<linearGradient id="paint3_linear_81_2412" x1="7.69195" y1="0.802766" x2="15.3509" y2="13.6431" gradientUnits="userSpaceOnUse">
<stop stop-color="#32A071"/>
<stop offset="0.0685" stop-color="#2DA771"/>
<stop offset="0.4762" stop-color="#15CF74"/>
<stop offset="0.8009" stop-color="#06E775"/>
<stop offset="1" stop-color="#00F076"/>
</linearGradient>
<clipPath id="clip0_81_2412">
<rect width="146" height="44" fill="white"/>
</clipPath>
</defs>
</svg>
