<svg width="23" height="22" viewBox="0 0 23 22" fill="none" xmlns="http://www.w3.org/2000/svg">
<path d="M10.4873 0.609076C10.8322 -0.203037 11.9832 -0.203035 12.3281 0.609078L14.7913 6.40879C14.9358 6.749 15.2562 6.98176 15.6244 7.01405L21.9014 7.56448C22.7804 7.64156 23.1361 8.73625 22.4703 9.31524L17.7156 13.4501C17.4367 13.6926 17.3143 14.0693 17.3974 14.4294L18.8136 20.5693C19.0119 21.4291 18.0807 22.1056 17.3243 21.6513L11.9226 18.4071C11.6057 18.2168 11.2097 18.2168 10.8928 18.4071L5.49109 21.6514C4.7347 22.1056 3.8035 21.4291 4.00181 20.5693L5.41803 14.4294C5.5011 14.0693 5.37873 13.6926 5.09982 13.4501L0.345137 9.31524C-0.320644 8.73625 0.0350444 7.64156 0.913994 7.56448L7.19102 7.01405C7.55923 6.98176 7.8796 6.749 8.02409 6.40879L10.4873 0.609076Z" fill="#FFC737"/>
</svg>
